<svg id="Layer_1" data-name="Layer 1" xmlns="http://www.w3.org/2000/svg" viewBox="0 0 164 315.57"><defs><style>.cls-1{fill:#fff;}</style></defs><title>facebook</title><path class="cls-1" d="M322.49,15.76c-5.47-.4-10.93-.92-16.41-1.09-8.69-.28-17.4-.6-26.08-.37a74.39,74.39,0,0,0-31.51,7.62c-15.18,7.55-25.33,19.53-31.07,35.37a75.25,75.25,0,0,0-4.27,19c-.38,4.21-.69,8.44-.72,12.67-.09,13.19,0,26.39,0,39.58,0,1.25,0,1.25-1.26,1.25H164v1.38q0,26.73,0,53.45c0,1.47,0,1.47,1.44,1.47h45.36c1.85,0,1.58-.11,1.58,1.61q0,70.35,0,140.71v1.42h58.2v-1.44q0-70.35,0-140.71a4.36,4.36,0,0,0,0-.58c-.11-.83.29-1.1,1.06-1a8,8,0,0,0,.87,0h44.88c1.41,0,1.45,0,1.63-1.38.65-4.86,1.26-9.71,1.9-14.57s1.25-9.46,1.86-14.19,1.19-9.47,1.8-14.2c.47-3.68,1-7.36,1.44-11,0-.25,0-.5.07-.91H271.87c-1.26,0-1.26,0-1.26-1.25,0-12.74,0-25.49.07-38.23a31.65,31.65,0,0,1,1.59-9.63c2.17-6.65,6.87-10.54,13.46-12.39a48.41,48.41,0,0,1,12.95-1.5c9.34,0,18.68,0,28,0H328V16.35C326.16,16.15,324.33,15.89,322.49,15.76Z" transform="translate(-164 -14.21)"/></svg>