<svg id="Layer_1" data-name="Layer 1" xmlns="http://www.w3.org/2000/svg" viewBox="0 0 335.19 335.17"><defs><style>.cls-1{fill:#fff;}</style></defs><title>instagram</title><path class="cls-1" d="M413.49,172.06c0,23.84.29,47.68-.07,71.52-.42,28.06-11.35,51.65-31.93,70.67a94.78,94.78,0,0,1-40.88,22.19,90.72,90.72,0,0,1-23,3.08c-47.72,0-95.45.16-143.17,0-22.26-.1-42.21-7.44-59.52-21.43C95.33,302.24,83.52,281.8,79.57,257a96.82,96.82,0,0,1-1.1-15q-.12-70,0-139.95A97.33,97.33,0,0,1,176.34,4.45c47.21,0,94.42-.14,141.62.09,21.46.1,40.79,7.12,57.72,20.32,19,14.8,30.95,34.08,35.91,57.66a95.15,95.15,0,0,1,1.92,19.71q0,34.92,0,69.84Zm-309.3-.11h0q0,35.63,0,71.26a66.41,66.41,0,0,0,1.91,15.69A71.24,71.24,0,0,0,176,313.76H316.17c11,0,21.66-2.13,31.44-7.24,26-13.59,39.77-35.23,40-64.58.38-46.65.1-93.3.11-139.95a75,75,0,0,0-2.08-17.6c-7.53-31.31-36.31-54.12-68.48-54.14q-70.43-.06-140.85,0a72.29,72.29,0,0,0-16.11,1.65,71.33,71.33,0,0,0-56,69.84Q104.14,136.83,104.19,171.95Z" transform="translate(-78.4 -4.41)"/><path class="cls-1" d="M155.74,172a90.21,90.21,0,0,1,180.42.06c0,49.73-40.63,90.23-90.44,90.19C196.24,262.17,155.72,221.53,155.74,172ZM246,107.57A64.43,64.43,0,1,0,310.4,172,64.23,64.23,0,0,0,246,107.57Z" transform="translate(-78.4 -4.41)"/><path class="cls-1" d="M349.08,56a12.88,12.88,0,1,1-12.91,12.82A12.89,12.89,0,0,1,349.08,56Z" transform="translate(-78.4 -4.41)"/></svg>