<?xml version="1.0" encoding="utf-8"?>
<!-- Generator: Adobe Illustrator 21.1.0, SVG Export Plug-In . SVG Version: 6.00 Build 0)  -->
<svg version="1.1" id="Layer_1" xmlns="http://www.w3.org/2000/svg" xmlns:xlink="http://www.w3.org/1999/xlink" x="0px" y="0px"
	 viewBox="0 0 488 88.1" style="enable-background:new 0 0 488 88.1;" xml:space="preserve">
<style type="text/css">
	.st0{fill:#FFFFFF;}
</style>
<g>
	<path class="st0" d="M298.2,42.6c-1.1-0.8-2.3-1.1-3.7-1.1c-1.5,0-2.9,0.4-4,1.3c-0.7,0.5-1.4,1.5-2,2.8h11.9
		C300,44.3,299.3,43.3,298.2,42.6z"/>
	<path class="st0" d="M443.9,0H44.1C19.8,0,0,19.8,0,44.1v0c0,24.2,19.8,44.1,44.1,44.1h399.9c24.2,0,44.1-19.8,44.1-44.1v0
		C488,19.8,468.2,0,443.9,0z M149.5,59.2h-13.8V29.7h5.6v24.2h8.2V59.2z M180.7,59.2h-5.5V37.4h5.5V59.2z M180.5,34.4
		c-0.7,0.7-1.5,1-2.4,1c-1,0-1.8-0.4-2.5-1.1c-0.7-0.7-1-1.6-1-2.6c0-1,0.3-1.8,1-2.5s1.5-1,2.5-1s1.8,0.3,2.5,1
		c0.7,0.7,1,1.5,1,2.5C181.5,32.9,181.1,33.7,180.5,34.4z M219.9,57.8c-1.4,1.3-3.3,1.9-5.7,1.9c-3.2,0-5.7-1.2-7.6-3.7l3.4-3.7
		c0.6,0.8,1.4,1.4,2.3,1.8s1.6,0.7,2.3,0.7c0.7,0,1.3-0.2,1.7-0.5c0.4-0.3,0.7-0.8,0.7-1.2c0-0.8-0.8-1.7-2.4-2.5l-1.8-0.9
		c-3.5-1.8-5.3-4-5.3-6.7c0-1.7,0.7-3.2,2-4.4s3-1.8,5.1-1.8c1.4,0,2.8,0.3,4,0.9c1.3,0.6,2.3,1.5,3.2,2.7l-3.4,3.4
		c-1.4-1.4-2.6-2-3.8-2c-0.6,0-1.1,0.1-1.4,0.4s-0.5,0.6-0.5,1c0,0.3,0.1,0.6,0.3,0.8s0.8,0.6,1.6,1l2,1c2.1,1,3.6,2.1,4.4,3.2
		c0.8,1.1,1.2,2.4,1.2,3.8C222.1,54.9,221.4,56.5,219.9,57.8z M258.4,42.1h-3.3v17.1h-5.5V42.1h-2.8v-4.7h2.8v-8.1h5.5v8.1h3.3V42.1
		z M305.8,49.9h-17.6c0.3,1.6,0.9,2.8,2,3.7c1.1,0.9,2.5,1.4,4.2,1.4c2,0,3.8-0.7,5.3-2.1l4.6,2.2c-1.2,1.6-2.5,2.8-4.1,3.6
		s-3.5,1.2-5.7,1.2c-3.4,0-6.2-1.1-8.4-3.2c-2.2-2.2-3.2-4.9-3.2-8.1c0-3.3,1.1-6.1,3.2-8.3c2.1-2.2,4.8-3.3,8.1-3.3
		c3.4,0,6.2,1.1,8.4,3.3c2.2,2.2,3.2,5.1,3.2,8.7L305.8,49.9z M352.3,59.2h-5.4v-9.6c0-2.6-0.1-4.3-0.4-5.2c-0.2-0.9-0.6-1.5-1.2-2
		s-1.3-0.7-2.2-0.7c-1.1,0-2.1,0.4-2.9,1.1c-0.8,0.7-1.3,1.8-1.7,3.1c-0.2,0.7-0.2,2.2-0.2,4.4v8.8h-5.5V37.4h5.5v2.2
		c1.2-1,2.4-1.8,3.4-2.2c1-0.4,2-0.6,3.1-0.6c2.2,0,4,0.8,5.5,2.3c1.3,1.3,1.9,3.2,1.9,5.7V59.2z"/>
</g>
</svg>
