<?xml version="1.0" encoding="utf-8"?>
<!-- Generator: Adobe Illustrator 21.1.0, SVG Export Plug-In . SVG Version: 6.00 Build 0)  -->
<svg version="1.1" id="Layer_1" xmlns="http://www.w3.org/2000/svg" xmlns:xlink="http://www.w3.org/1999/xlink" x="0px" y="0px"
	 viewBox="0 0 500 500" style="enable-background:new 0 0 500 500;" xml:space="preserve">
<style type="text/css">
	.st0{fill:#FFFFFF;}
</style>
<g>
	<g>
		<rect x="11" y="231.4" class="st0" width="44.2" height="139.2"/>
		<path class="st0" d="M420.8,208.3c-8.9-86.4-82-153.9-170.8-153.9S88.1,121.9,79.2,208.3H67.7v185.3h44.2V208.3h-9.5
			c8.8-73.7,71.6-130.9,147.7-130.9c76.1,0,138.8,57.1,147.7,130.9h-9.5v185.3h44.2V208.3H420.8z"/>
		
			<rect x="444.8" y="231.4" transform="matrix(-1 -4.484825e-11 4.484825e-11 -1 933.7842 601.9904)" class="st0" width="44.2" height="139.2"/>
	</g>
	<g>
		<polygon class="st0" points="376.7,228.7 250,156.5 123.3,228.7 123.3,373.3 164.7,396.9 164.7,253.1 250,301.7 335.3,253.1 
			335.3,396.9 376.7,373.3 		"/>
		<polygon class="st0" points="250.1,335.9 194,303.6 194,413.6 250,445.5 306,413.6 306,303.6 		"/>
	</g>
</g>
</svg>
