<?xml version="1.0" encoding="utf-8"?>
<!-- Generator: Adobe Illustrator 21.1.0, SVG Export Plug-In . SVG Version: 6.00 Build 0)  -->
<svg version="1.1" id="Layer_1" xmlns="http://www.w3.org/2000/svg" xmlns:xlink="http://www.w3.org/1999/xlink" x="0px" y="0px"
	 viewBox="0 0 1244.9 242" style="enable-background:new 0 0 1244.9 242;" xml:space="preserve">
<style type="text/css">
	.st0{fill:#010101;}
	.st1{fill:#FFFFFF;}
</style>
<g>
	<path class="st0" d="M993,113.1c-6.1,0-11.2,2.2-15.2,6.5c-4,4.3-6,9.8-6,16.6c0,7.3,2.3,13.1,7,17.6c4.1,4,9.8,5.9,15.5,5.7
		c5.6-0.3,10.4-2.4,14.2-6.4c4.1-4.3,6.1-10,6.1-16.9c0-6.8-2-12.4-6.1-16.6C1004.4,115.2,999.2,113.1,993,113.1z"/>
	<path class="st0" d="M912.3,115.7c-3.8-2.7-8.3-4.1-13.4-4.1c-5.5,0-10.3,1.5-14.5,4.6c-2.6,1.9-5,5.2-7.2,10c0,0.1,0,0.2,0.1,0.2
		l42.4,0c0.1,0,0.1-0.1,0.1-0.2C918.6,121.9,916.1,118.4,912.3,115.7z"/>
	<path class="st0" d="M-0.1,0.1v241.8c0,0.1,0.1,0.1,0.1,0.1h1123.9c66.8,0,121-54.2,121-121v0c0-66.8-54.2-121-121-121H0
		C-0.1,0-0.1,0.1-0.1,0.1z M623.1,175.5h-19.6c-0.1,0-0.1-0.1-0.1-0.1v-39.8c0-8.9-1.1-14.9-3.3-18.1c-2.2-3.2-5.5-4.7-10-4.7
		c-3.4,0-6.4,1-9.1,2.9c-2.7,1.9-4.7,4.6-6,8c-1.3,3.4-2,8.8-2,16.4v35.3c0,0.1-0.1,0.1-0.1,0.1h-19.6c-0.1,0-0.1-0.1-0.1-0.1v-38
		c0-7-0.5-12.1-1.6-15.3c-1-3.2-2.6-5.5-4.7-7c-2.1-1.5-4.6-2.3-7.5-2.3c-3.3,0-6.3,1-8.9,2.9c-2.7,2-4.7,4.7-6,8.2s-2,9.1-2,16.6
		v34.8c0,0.1-0.1,0.1-0.1,0.1h-19.5c-0.1,0-0.1-0.1-0.1-0.1V97c0-0.1,0.1-0.1,0.1-0.1h19.5c0.1,0,0.1,0.1,0.1,0.1v8.6
		c0,0.1,0.1,0.2,0.2,0.1c3.3-3.6,7-6.3,11-8.1c4.1-1.8,8.6-2.7,13.5-2.7c4.9,0,9.3,1.2,13.3,3.6c3.9,2.4,7.1,5.8,9.4,10.4
		c0,0.1,0.2,0.1,0.2,0c3.1-4.5,6.9-8,11.4-10.4c4.6-2.4,9.5-3.6,14.9-3.6c5.6,0,10.5,1.3,14.7,3.9c4.2,2.6,7.3,6,9.1,10.2
		c1.9,4.2,2.8,11,2.8,20.4v46C623.2,175.4,623.2,175.5,623.1,175.5z M659.4,175.5H640c-0.1,0-0.1-0.1-0.1-0.1V97
		c0-0.1,0.1-0.1,0.1-0.1h19.5c0.1,0,0.1,0.1,0.1,0.1v78.4C659.6,175.4,659.5,175.5,659.4,175.5z M658.6,86.4
		c-2.4,2.5-5.4,3.7-8.8,3.7c-3.5,0-6.5-1.3-9-3.8c-2.2-2.3-3.4-4.9-3.7-8c-0.3-4,1.3-8,4.3-10.7c2.3-2,5-3.1,8.2-3.1
		c3.5,0,6.4,1.3,8.9,3.8c2.5,2.5,3.7,5.5,3.7,9.1C662.3,80.9,661.1,83.9,658.6,86.4z M700.1,153.1c4.4,4.2,10.2,6.3,17.3,6.3
		c8.8,0,15.6-3,20.5-8.9c0,0,0.1-0.1,0.2,0l15.4,10.5c0.1,0,0.1,0.1,0,0.2c-8.4,10.9-20.3,16.3-35.6,16.3
		c-13.8,0-24.6-4.1-32.5-12.3c-7.8-8.2-11.7-17.8-11.7-28.8c0-7.6,1.9-14.6,5.7-21c3.8-6.4,9.1-11.4,15.9-15.1
		c6.8-3.7,14.4-5.5,22.9-5.5c7.8,0,14.8,1.6,21,4.7c6.2,3.1,11.2,7.5,15.2,13.1c0,0.1,0,0.1,0,0.2l-16.2,8.9c0,0-0.1,0-0.1,0
		c-3.1-3.2-6.1-5.4-9.1-6.7c-3-1.3-6.5-1.9-10.6-1.9c-7.4,0-13.3,2.2-17.9,6.6c-4.6,4.4-6.8,10-6.8,16.9
		C693.5,143.4,695.7,148.9,700.1,153.1z M841.8,175.5h-19.2c-0.1,0-0.1-0.1-0.1-0.1V141c0-9.1-0.4-15.3-1.3-18.5
		c-0.9-3.2-2.3-5.6-4.4-7.2c-2.1-1.6-4.7-2.4-7.8-2.4c-4,0-7.4,1.3-10.3,4c-2.9,2.6-4.9,6.3-6,10.8c-0.6,2.4-0.9,7.8-0.9,16.2v31.4
		c0,0.1-0.1,0.1-0.1,0.1h-19.3c-0.1,0-0.1-0.1-0.1-0.1V66.6c0-0.1,0.1-0.1,0.1-0.1h19.3c0.1,0,0.1,0.1,0.1,0.1v37.9
		c0,0.1,0.1,0.2,0.2,0.1c3.8-3.2,7.6-5.7,11.4-7.3c3.9-1.7,7.8-2.5,11.8-2.5c7.8,0,14.4,2.7,19.7,8.1c4.6,4.7,6.9,11.5,6.9,20.6
		v51.8C841.9,175.4,841.9,175.5,841.8,175.5z M939.6,141.9l-63.1,0c-0.1,0-0.1,0.1-0.1,0.1c0.9,5.5,3.4,9.9,7.3,13.2
		c4,3.3,9,4.9,15.2,4.9c7.3,0,13.7-2.6,18.9-7.7c0,0,0.1,0,0.1,0l16.4,7.7c0.1,0,0.1,0.1,0,0.2c-4.1,5.8-9.1,10.1-14.8,12.9
		c-5.8,2.8-12.6,4.2-20.6,4.2c-12.3,0-22.4-3.9-30.1-11.7c-7.8-7.8-11.6-17.5-11.6-29.2c0-12,3.9-22,11.6-29.9s17.4-11.9,29.1-11.9
		c12.4,0,22.4,4,30.2,11.9c7.8,7.9,11.6,18.4,11.6,31.4l-0.1,3.6C939.7,141.8,939.7,141.9,939.6,141.9z M1033.3,175.5h-19.5
		c-0.1,0-0.1-0.1-0.1-0.1v-7.9c0-0.1-0.1-0.2-0.2-0.1c-3.8,3.6-7.6,6.1-11.4,7.7c-3.9,1.6-8.1,2.4-12.6,2.4
		c-10.2,0-18.9-3.9-26.3-11.8c-7.4-7.9-11.1-17.7-11.1-29.4c0-12.1,3.6-22.1,10.8-29.8c7.2-7.8,15.9-11.6,26.1-11.6
		c4.7,0,9.1,0.9,13.3,2.7c4.1,1.7,7.8,4.4,11.3,7.8c0.1,0.1,0.2,0,0.2-0.1V97c0-0.1,0.1-0.1,0.1-0.1h19.5c0.1,0,0.1,0.1,0.1,0.1
		v78.4C1033.4,175.4,1033.4,175.5,1033.3,175.5z M1070.8,175.5h-19.5c-0.1,0-0.1-0.1-0.1-0.1V66.6c0-0.1,0.1-0.1,0.1-0.1h19.5
		c0.1,0,0.1,0.1,0.1,0.1v108.7C1070.9,175.4,1070.9,175.5,1070.8,175.5z"/>
</g>
<g>
	<g>
		<rect x="150.9" y="113.9" class="st1" width="16.8" height="53"/>
		<path class="st1" d="M306.9,105.1c-3.4-32.9-31.2-58.6-65.1-58.6s-61.7,25.7-65.1,58.6h-4.4v70.6h16.8v-70.6h-3.6
			c3.4-28.1,27.3-49.8,56.2-49.8c29,0,52.9,21.8,56.2,49.8h-3.6v70.6h16.8v-70.6H306.9z"/>
		
			<rect x="316.1" y="113.9" transform="matrix(-1 -4.487223e-11 4.487223e-11 -1 648.9785 280.8462)" class="st1" width="16.8" height="53"/>
	</g>
	<g>
		<polygon class="st1" points="290.1,112.9 241.9,85.4 193.6,112.9 193.6,167.9 209.4,176.9 209.4,122.2 241.9,140.7 274.4,122.2 
			274.4,176.9 290.1,167.9 		"/>
		<polygon class="st1" points="241.9,153.7 220.6,141.4 220.6,183.3 241.9,195.5 263.2,183.3 263.2,141.4 		"/>
	</g>
</g>
</svg>
