<?xml version="1.0" encoding="utf-8"?>
<!-- Generator: Adobe Illustrator 21.1.0, SVG Export Plug-In . SVG Version: 6.00 Build 0)  -->
<svg version="1.1" id="Layer_1" xmlns="http://www.w3.org/2000/svg" xmlns:xlink="http://www.w3.org/1999/xlink" x="0px" y="0px"
	 viewBox="0 0 500 500" style="enable-background:new 0 0 500 500;" xml:space="preserve">
<style type="text/css">
	.st0{fill:#FFFFFF;}
</style>
<g>
	<path class="st0" d="M468.5,138.6H31.5c-15,0-27.3-12.3-27.3-27.3v0c0-15,12.3-27.3,27.3-27.3h437.1c15,0,27.3,12.3,27.3,27.3v0
		C495.8,126.3,483.6,138.6,468.5,138.6z"/>
	<path class="st0" d="M468.5,277.3H31.5c-15,0-27.3-12.3-27.3-27.3v0c0-15,12.3-27.3,27.3-27.3h437.1c15,0,27.3,12.3,27.3,27.3v0
		C495.8,265,483.6,277.3,468.5,277.3z"/>
	<path class="st0" d="M468.5,416H31.5c-15,0-27.3-12.3-27.3-27.3v0c0-15,12.3-27.3,27.3-27.3h437.1c15,0,27.3,12.3,27.3,27.3v0
		C495.8,403.7,483.6,416,468.5,416z"/>
</g>
</svg>
