<svg id="svg2" xmlns="http://www.w3.org/2000/svg" viewBox="0 0 1024 304.41"><defs><style>.cls-1{fill:#fff;}</style></defs><title>name</title><path id="path2987" d="M52.88,307a4.29,4.29,0,0,1,1-1.5c1-1.06.94-1.16-.25-2.09s-1.84-4.06-1.06-6.37c.52-1.56,1.37-1.68,2.34-.34a1.5,1.5,0,0,0,1.62.62c.72-.28.9-1.28.86-4.77-.06-6-.77-7-4.85-6.57-3.27.34-4.54-.54-2.83-2,1.14-.94,2.77-4.44,2.37-5.08a8,8,0,0,0-2.82-1.26c-1.38-.41-3.11-1-3.85-1.27-2.91-1.14-5.51-.09-5.17,2.08.18,1.18,2.67,3.32,3.36,2.9.39-.24.55-.19.36.12a1.51,1.51,0,0,0,.17,1.38,1.37,1.37,0,0,1-.15,1.62,1.34,1.34,0,0,0,0,1.81c.92,1.48-1,2.48-5.45,2.84-2.79.22-3.85.08-4.54-.6-1.49-1.49-5-3.45-5.51-3.11-.28.18-.42.92-.3,1.65.17,1-.33,1.7-2.12,2.93-1.29.88-2.35,2.06-2.35,2.63,0,2.33-3.44,4.79-5.15,3.72-.61-.38-.4-.93.93-2.47,1.46-1.69,1.73-2.52,1.85-5.77.09-2.52.46-4.15,1.08-4.84a5.5,5.5,0,0,0,1.38-4.06c0-.56.17-1,.4-1a9.86,9.86,0,0,0,2.35-1.83c2.13-2,1.79-2.81-1.2-2.83-1.12,0-1.49-.25-1.27-.83.37-1-.69-1.8-1.22-.94s-1.46.78-1.46.07c0-.29.95-1.08,2.1-1.77,3.42-2,7.76-5.94,7.46-6.73a4.11,4.11,0,0,0-1.66-1.48c-.8-.43-1.25-1.08-1.07-1.55s0-.7-.59-.46A2.36,2.36,0,0,0,26.4,261c-.44,1.14-4.13,2.58-6.39,2.49a7.3,7.3,0,0,0-3.1.58,6.68,6.68,0,0,1-4.92-.21c-.23-.14-.18-1.3.1-2.58.65-2.91.43-4.42-.87-5.94s-.89-2,.72-1.13a6.24,6.24,0,0,0,2.47.63c1.37,0,8.39-3.11,8.91-3.94.41-.67-.28-1.61-1.52-2.06-.64-.24-1-1-1-2,0-2.13,1.3-3.93,2.5-3.47s2.42-1,2-2.2c-.23-.61-1.16-.88-3-.88H19.56l.18-3.06c.16-2.76.32-3.08,1.62-3.27a3.72,3.72,0,0,0,2.22-1.31,3.12,3.12,0,0,1,2.4-1.11c2.21,0,2.51-.47,1.16-1.82-.63-.63-1-1.4-.78-1.71s-.54-.95-1.64-1.41c-1.51-.63-2.22-1.45-2.93-3.34C20.2,219,20,217.75,21,216.94s4.1-.59,6.33.27c1.71.66,1.22-1.42-.79-3.29a7.38,7.38,0,0,0-2.37-1.69c-.31,0-.39-.26-.2-.58s0-.58-.35-.58-.57-.14-.4-.32,1.28.25,2.45.94c2.16,1.27,6.45,1.68,7.42.7.53-.53-1.53-4.86-2.62-5.52-2.85-1.72-2.91-1.89-1.3-3.81s1.88-3.08.84-4.12c-.51-.51-.51-.87,0-1.49.83-1-.56-2.39-3-3a2.45,2.45,0,0,1-2-1.83,1.61,1.61,0,0,0-1.81-1.45c-1.91,0-1.5-1.2.83-2.38s1.81-2-2.05-3.36c-4-1.42-5.36-2.68-5.08-4.84a3,3,0,0,0-1-2.8c-1.17-1.09-1.17-1.1.48-1.44,1.84-.38,5.39-.79,11.71-1.33,3-.26,4.47-.15,5.13.4s1.5.61,4.16,0c3.67-.88,4.51-2,2.59-3.45-1.16-.88-1.21-1.07-.39-1.74,1.26-1,1-3.52-.64-5.49a6,6,0,0,1-1.35-2.45,2.46,2.46,0,0,0-1.06-1.56c-2.67-1.93-1.11-2.62,2.52-1.11,3.43,1.42,4.81,1.46,5.23.12s-.07-3.56-.75-3.56c-.34,0-.42-2-.18-4.5.1-1.06,1.66-.25,2,1,.21.8.81,1.13,2.05,1.13a10,10,0,0,1,2.83.4c.92.35,1,.27.31-.53s-.58-1,.44-1.32c.66-.21,1.2-.64,1.2-1a5.45,5.45,0,0,1,1.6-2q1.6-1.47.88-1.77c-.55-.23-.51-.51.15-1.17a4.22,4.22,0,0,0,.94-2.43c.11-2.54.17-2.69,1.53-4.16A8.56,8.56,0,0,0,59,137.45c.18-.57.67-.9,1.1-.74a.91.91,0,0,0,1.12-.61c.22-.58,1.08-.91,2.34-.91,1.65,0,2.11-.29,2.7-1.71a4.17,4.17,0,0,1,1.53-2,1.72,1.72,0,0,0,.82-1.55,5.47,5.47,0,0,1,1.16-2.71c.64-.81,1-1.67.89-1.9s.37-.31,1.15-.16a2.75,2.75,0,0,0,2.36-.67,3.34,3.34,0,0,1,2-.94c1.15,0,2.39-2.25,2.39-4.36,0-1.79,1-2.11,3.43-1.11,1.08.44,2,.8,2.08.8a19.81,19.81,0,0,0,3.83-3.71c0-.22-.66-.23-1.46,0-1,.26-1.46.13-1.47-.43s-.13-.61-.55.07-.6.71-.94-.17c-.22-.57-.24-1.18-.05-1.37s.1-.81-.21-1.37c-.45-.83-.27-1.1.92-1.4.81-.2,1.31-.62,1.12-.94s.18-.57.82-.57c1.3,0,2.25-1.09,1.46-1.67s-.85-1.83,0-1.83c1.39,0,5-3.58,5.64-5.67a7.31,7.31,0,0,0,.32-3.31c-.25-1,.08-1.63,1.4-2.61a3.65,3.65,0,0,0,1.74-2.73c0-1,.32-1.44,1.08-1.44a3.41,3.41,0,0,0,2.08-1.11,6.17,6.17,0,0,1,3-1.48,2.78,2.78,0,0,0,2.56-2.1c.33-1,.88-1.73,1.22-1.73s1-1.05,1.55-2.33c.91-2.27,1-2.33,3.73-2.33,2.26,0,3.13-.31,4.57-1.66a15.69,15.69,0,0,1,5-2.68A11.82,11.82,0,0,0,125,72.69a3.09,3.09,0,0,1,2.06-.53,2.22,2.22,0,0,0,2.39-1.46c.37-.8,1-1.46,1.31-1.46s1-.53,1.37-1.17a2.37,2.37,0,0,1,1.53-1.17c1,0,1.56-1.93.88-3s-.68-2.42-.08-2.06a2.93,2.93,0,0,0,1.75-.24c1.53-.58,1.9-3.45.44-3.45-1,0-1.2-1.48-.32-2a1,1,0,0,0,.23-1.2c-.18-.47,0-.86.35-.86s.49-.3.26-.67-.16-.52.15-.33c.66.41,4.87-3.17,4.87-4.14,0-.58-2.73-2.37-3.5-2.29S134,45,134,44.63c0-.25.72-.36,1.6-.25s1.28.09.88-.06a1.18,1.18,0,0,1-.73-1c0-1,1.84-1.7,2.35-.87a5.12,5.12,0,0,0,2.74,1c2.86.38,5.29-1.19,4.09-2.64-.61-.74-.31-.79,2.21-.37,6.08,1,11.35-.44,11.4-3.12,0-.85.13-.83.88.15.47.62.86.9.86.62s.38,0,.84.62a3.29,3.29,0,0,1,.53,2.4,1.49,1.49,0,0,0,.84,1.88,10.55,10.55,0,0,0,6.59,0,2.23,2.23,0,0,1,2.2.42c1.52,1.07,6.28,1.63,6.79.81.2-.32.07-.59-.29-.59-1.46,0-4.42-2.64-4.2-3.74a1.61,1.61,0,0,0-.71-1.63c-1.23-.69-1.18-1.46.13-2.16.72-.39,2-.32,3.94.22,1.58.43,2.48.83,2,.89s-.62.2-.19.38c.83.34,4.27-1.35,4.27-2.1,0-.29.72-.38,1.6-.19a33.6,33.6,0,0,0,3.36.48c1,.08,1.92.18,2.13.21s.54.71.74,1.5c.44,1.76,1.66,2.46,4.73,2.73l2.33.21V38a4.72,4.72,0,0,0-.55-2.73c-.36-.25-.34-.89.05-1.75a2.25,2.25,0,0,0,0-2.36c-1.1-1.75.2-2.16,4.18-1.32a16.24,16.24,0,0,1,4.49,1.44c1.41,1.17,8.47-.58,8.47-2.11,0-.47-.79-1.3-1.75-1.85S211,26.14,211,25.88s-.25-.32-.55-.14a.73.73,0,0,1-1-.34c-.29-.47,0-.59,1.11-.39.84.16,1.6.1,1.69-.12.28-.71,4.54-1.28,4.54-.61,0,.89,2.2,2.94,3.14,2.94.44,0,.94.53,1.11,1.17a1.52,1.52,0,0,0,1.3,1.17c.67,0,.88.3.64.92a5.34,5.34,0,0,0-.35,1.46c0,.29-.54.54-1.21.54-1.79,0-3.17,1.56-2.31,2.61a1.42,1.42,0,0,0,1.41.55,3.87,3.87,0,0,1,2.31.54c1.47.76,1.5.85.4,1.13-1.77.46-1.44,2,.71,3.34s3.61,1.51,3.14.29c-.26-.67.13-.88,1.69-.88,1.36,0,2-.27,2-.83,0-1.48,2.89-3.28,4.59-2.85s4.75,3.18,4.75,4.24c0,.39,1.1.63,2.77.59s6,0,9.91,0c6.2.07,13.58-.75,13.58-1.51a5.78,5.78,0,0,0-1.17-1.42,4,4,0,0,1-1.17-1.75c0-.88,1.91-.7,3.36.32,1.21.85,1.38.79,3-1a9.61,9.61,0,0,0,1.76-2.36c0-.24.3-.44.64-.44s.47.24.28.54a.72.72,0,0,0,.32.95c.46.29.42.55-.14.91-1.36.86,1.47.61,3.71-.32,3.12-1.3,3.7-2.32,2-3.45s-1.81-3.16-.27-3.06A4,4,0,0,1,280.94,30c.62.72,1.28,1.15,1.47,1s.93.07,1.64.57l1.3.91-1.59.61a9.64,9.64,0,0,1-2.14.61c-.3,0-.55.63-.55,1.39,0,1.19.36,1.44,2.48,1.75a12.19,12.19,0,0,0,4.05-.08c1.79-.5,7.14-5.41,8.72-8,1-1.71,1-1.75-.24-2.46s-1.27-.72.38-.74c2,0,6.95-4.51,8-7.27,1.71-4.56,2.54-5.61,4.92-6.23,3.18-.83,5.55-1.88,5.55-2.46,0-1.33,5.13-4.78,8.17-5.49,3.51-.82,4.67-.73,4.68.37,0,.61.15.7.44.26s2.1-.67,4.44-.69c3.11,0,4.27.22,5.17,1.06A3.26,3.26,0,0,0,341,5.8a19.77,19.77,0,0,1,5.44.36c3.35.66,3.58.62,7.43-1.2a17.74,17.74,0,0,1,7.83-2c3-.11,3.86,0,3.86.66,0,.45-.26.65-.58.45s-.43.18-.2,1a12,12,0,0,1,.38,2.43c0,1.59,2.83,1.35,3.49-.29.29-.72.54-1,.56-.67s1.46.79,3.19,1A13.05,13.05,0,0,1,377,8.86c1.6,1,3,4.87,2.48,6.82a1.21,1.21,0,0,0,2.08,1.15c.45-.45,1-.45,1.79,0s3.07.47,6.77.17c3.09-.25,8.38-.44,11.78-.43l6.17,0,4.44,2.7c3.57,2.17,5,2.7,7.11,2.7,1.82,0,2.62-.23,2.52-.73-.19-.94,1.88-.61,3.11.49.54.49,2.17.82,4,.82,3.35,0,8.37,1.07,8,1.7s7.94.61,10.47,0c3.62-.95,10.61-4.45,11.78-5.9a19.87,19.87,0,0,1,2.74-2.62c1.58-1.22,1.73-1.24,2.42-.3s.5,1.15-1,2a3.18,3.18,0,0,0-1.79,3.43c0,.35-10.92,5.93-13,6.64a57.71,57.71,0,0,1-7.58.69,49.78,49.78,0,0,0-6.68.56c-.75.75,1.47,1.59,4.3,1.62,2.12,0,3,.23,2.65.61a1.91,1.91,0,0,0-.58,1c0,.74,3.17,1.47,4.91,1.14l1.7-.33-1.4-.7a16,16,0,0,0-2.57-1c-.64-.16.15-.16,1.75,0a30.37,30.37,0,0,1,4.9.92c2.37.75,9.92.15,10.94-.87a2.92,2.92,0,0,1,1.62-.42,4.75,4.75,0,0,0,2.35-.88,4.29,4.29,0,0,1,2-.86,7.45,7.45,0,0,0,2.54-.85c1.4-.73,1.68-.73,1.95,0,.38,1-1.44,3.64-2.82,4.11a16.19,16.19,0,0,1-3.34.43c-1.29.05-2.05.27-1.7.49a1.14,1.14,0,0,1,.29,1.34c-.28.73-1.22.93-4.25.93-2.77,0-4.41.32-5.71,1.1a23,23,0,0,1-4,1.81c-2,.64-2.2.89-2,2.49.27,2.66,1.51,3.15,5.77,2.27a19.27,19.27,0,0,0,5-1.66,5.27,5.27,0,0,1,3.7-.6,14.87,14.87,0,0,0,4.37-.16c3.42-.77,2.86.35-.73,1.46a23.78,23.78,0,0,0-3.93,1.47A25.52,25.52,0,0,1,457.91,45c-5.1,1.38-5.6,2-1.58,2,6.05,0,22.12-5,24.44-7.66a3.46,3.46,0,0,1,2.22-1.1c1.79,0,10.53-5.18,10.53-6.24,0-.58.33-.76.94-.52a9.29,9.29,0,0,0,3.94-.58c4-1.27,6.61-.61,8.13,2.12a18,18,0,0,0,2.37,3.26,23.87,23.87,0,0,1,2.3,2.78c1.74,2.54,4.6,3.35,11.79,3.34a59,59,0,0,1,12.11,1.19c6,1.26,8,1.19,13.28-.45a30.41,30.41,0,0,1,14-.5,25.23,25.23,0,0,0,5.92.4c3.78-.56,7.44-.19,7.28.74-.06.33-.89,1-1.86,1.57s-1.62,1.08-1.46,1.21c.41.34-1.53,2.2-2.29,2.2a.6.6,0,0,0-.63.56c0,.84-2.17,1.84-4.1,1.9-.93,0-1.58.24-1.43.47.49.79-8.16.5-11.21-.38A22,22,0,0,1,547.4,49c-2.07-1.4-2.48-1.47-6.89-1.09a58.13,58.13,0,0,0-7.63,1.17c-4.14,1.07-10.28,1-13.55-.05-3.8-1.28-8.62-4.29-9.68-6.06a42.14,42.14,0,0,0-8.12-8.36c-2.41-1.52-4.3-.71-8.9,3.81-3.2,3.14-3.9,4.12-3.24,4.53s.41.75-1.16,1.58c-2.86,1.52-6,4.68-5.48,5.52.3.49.11.58-.61.3-2.28-.87-3.53,2.15-1.67,4a4.06,4.06,0,0,1,1.06,2.23,12.06,12.06,0,0,0,.52,2.56c.33,1,.22,1.31-.47,1.31-.5,0-.91-.31-.91-.68s-.19-.49-.41-.27.36,1,1.31,1.81c1.56,1.26,1.65,1.52,1,2.66-.88,1.45-1,1.29,1.55,2.58,2,1,4,.84,3.31-.25-.24-.39.17-.39,1.2,0,1.53.58,4.94-.12,6.35-1.3a5.17,5.17,0,0,1,2.44-.46,11.39,11.39,0,0,0,3.53-.66c1.79-.72,6.68-.71,7.17,0a10.13,10.13,0,0,0,3.11,1.22c2.27.62,3.06.63,4.18,0a2,2,0,0,1,2.73.21,6.23,6.23,0,0,0,3,.95c1.5,0,1.6.11.9.95s-.54.93,1.69.71c1.88-.18,2.41-.05,2.19.53a.88.88,0,0,0,.57,1.1,1.37,1.37,0,0,1,.87,1.15c0,.85,2.17,1.07,4.45.46,1.17-.32,1.2-.43.38-2.07-.89-1.79-.52-3.17.45-1.65.3.47.55.62.55.33s.5,0,1.1.73c1.47,1.7,3.2,1.58,6.82-.46,8.16-4.6,21.27-5.84,21.27-2,0,.47.61.8,1.46.8s1.46-.33,1.46-.81c0-.94,1.59-1.72,1.86-.91.1.3.84.55,1.64.56,8.33.1,12.29-.18,17-1.16,8.43-1.78,19.77-1.27,22.28,1,.85.77,2.23.91,7.59.77l9.19-.21A46.75,46.75,0,0,1,635.9,68c.48.2,9.15.39,19.26.43,19.44.08,37.05.57,37.85,1.06a69.26,69.26,0,0,0,8.6.24c4.47,0,22.17-.11,39.34-.17,33.63-.12,37.1-.18,36.71-.56-.14-.14-5.11-.67-11-1.18L753.5,66.66c-1.28-.12-8.64-.28-16.34-.36s-14.79-.31-15.76-.52c-1.71-.36-1.69-.39,1-1.08a28.57,28.57,0,0,1,5.84-.72,67.24,67.24,0,0,0,8.35-.88c5.35-.89,14.66-.82,32.68.22a276.69,276.69,0,0,0,28.89-.19c5.55-.32,11.57-.55,31.22-1.19,14.76-.48,35.43-1.41,40.27-1.81,4.15-.35,4.63.13,1.27,1.28-1.18.4-1.92,1.08-2,1.87-.16,1-.71,1.3-3.65,1.63-1.91.22-3.46.6-3.46.85s-1.38.65-3.06.89-2.67.56-2.19.71a5.17,5.17,0,0,1,1.86,1.52c.92,1.15,1.45,1.23,7.3,1.08,3.47-.09,9.59-.35,13.6-.58a92.69,92.69,0,0,1,11.67,0,26.63,26.63,0,0,0,7-.11c1.44-.31,5-1,7.88-1.46l9-1.55a37.49,37.49,0,0,1,5-.6c2.09.09,6.91-1.25,11.65-3.24S938,60,937.38,61A8.27,8.27,0,0,1,935,62.48c-3.45,1.64-2.15,2.54,3.79,2.63s7.18.41,6.71,1.65c-.23.6-.06.76.55.53,1.09-.42,1.17.56.11,1.2-.73.44-2.9,4.29-2.58,4.59a26.88,26.88,0,0,0,3.4.54l3.26.4,2.46-2.93a12.42,12.42,0,0,1,4.43-3.59,7.2,7.2,0,0,0,2.73-1.56c.63-.76.57-1-.36-1.72-1.83-1.34,0-2.25,4.22-2,.72,0,1.31.43,1.31.87,0,1.06,2.53,2.69,4.16,2.69,1.21,0,1.23-.06.29-1.09s-.89-1.13.93-2a20.87,20.87,0,0,1,4.21-1.29c1.63-.29,2.06-.55,1.48-.91s-.43-.65.83-1.13q1.64-.62,1.31-1.49c-.39-1-.3-1,1.49-.36s4-.16,4-1.35c0-.91,2.81-2.66,4.27-2.66a5,5,0,0,0,2.22-1.08,9.58,9.58,0,0,1,3-1.47c.88-.22,1.6-.65,1.6-1s.66-.57,1.46-.57,1.46.2,1.46.45c0,.52-3.13,2.2-5.18,2.78-2.4.68-.11,1.44,3.2,1.06a8.12,8.12,0,0,1,4.33.38c1.35.72,1.35.73.17,1.67-1.73,1.38-2.07,3.45-.7,4.19a2,2,0,0,1,1.11,1.45c0,1.06-2.49,1.13-6.27.17-2-.51-2.76-.52-2.93,0A12.17,12.17,0,0,1,989.68,64a4.18,4.18,0,0,1-3.75,1.76c-1.38,0-2.15.26-2.06.68s-.46,1-1.2,1.38l-1.34.7,1.43,1.7c3.52,4.18,1.39,5.41-4.35,2.51a61.3,61.3,0,0,1-8.7-5.22c-.35-.36-1.45-.66-3.73-1-1.57-.26-1.66-.18-1.31,1.22.28,1.1.1,1.67-.65,2.1-.92.53-.89.6.29.61,1.77,0,1.67,1-.15,1.42-1.14.29-1.46.74-1.46,2.05,0,1.54-.22,1.72-2.48,2.07-3.89.61-4.57.9-4.39,1.95.14.82-.44,1-3.68,1.06s-4.06.29-5.38,1.62c-1.87,1.87-3,3.81-2.44,4.34s4,.64,17.8.95c5.62.12,11,.51,11.86.85a9.93,9.93,0,0,0,2.19.63c1.41,0,.33,1.07-1.35,1.34-1,.17-2.95.56-4.23.88s-8.35.74-15.7.94c-11.75.32-13.45.49-14.1,1.38-.41.56-.67,1.09-.57,1.18.34.34,3.06.79,6.11,1,3.65.26,5.35,1.44,4.16,2.88-.55.66-.57.9-.06.9s.53.26.33.58a2.93,2.93,0,0,1-2,.58c-1.39,0-1.66.23-1.56,1.31.24,2.64,1.1,3.27,4.93,3.59a21.59,21.59,0,0,1,4.13.6c.44.27,5,.36,12.92.25,1.77,0,4,0,5,.09a40.33,40.33,0,0,0,4.67-.07c1.65-.12,2.92,0,2.93.37a3.2,3.2,0,0,0,.47,1.3c.56.88-.35.94-3,.19-1-.3-1.85-.36-1.82-.15.27,1.93-.28,3-1.94,3.64-1,.42-1.57.86-1.22,1s.45.85,0,2.33c-.5,1.79-.42,2.24.46,2.89s.89.76-.67.77a17.62,17.62,0,0,0-3.85.6c-3.62,1-7,1.1-7.32.2-.18-.46-1.1-.79-2.14-.76-1.62,0-1.69.1-.58.54a4,4,0,0,1,1.61,1.08c.48.78-.21,2.43-1,2.43-.56,0-2.39,3-2,3.19l1.57.67c1.29.54,1.18.61-1.17.68-4.9.15-9.23.81-10.25,1.55-.72.52-1,1.59-1.06,3.59s-.31,3-1.14,3.5c-1.6.94-.6,1.28,5,1.73,3.44.27,5.12.19,5.39-.26.5-.81,3.05-.86,3.54-.08s2.93.27,2.84-.79c-.05-.6.37-1,1.17-1a4.7,4.7,0,0,0,2.09-.54c.68-.43.53-.68-.73-1.25-.87-.39-1.57-1.05-1.57-1.47,0-.57,1-.67,4.23-.4,2.33.19,4.38.58,4.57.87a4.67,4.67,0,0,0,2,1c1.11.3,1.71.85,1.73,1.58a8.12,8.12,0,0,0,.82,2.71c.91,1.84.1,3.37-1.79,3.37a1,1,0,0,0-1.1.88c0,.48.26.88.58.88,1,0,.65,3.26-.44,4.23a11,11,0,0,1-3.59,1.59c-4.32,1.15-7.29,3.66-7.9,6.67l-.34,1.7-13.57-.35c-11-.28-13.84-.19-15,.47-.91.51-3.27.83-6.29.84-4.61,0-4.85.09-5.38,1.48-.31.8-.94,1.46-1.41,1.46-1.36,0-1.78,1.27-.69,2.08a7,7,0,0,0,4,.48c2.34-.2,3.11,0,3.71.79s1.74,1,6.56,1.11c6.46.09,10.05,1.23,10.05,3.2,0,1.07-.84,1.39-3.1,1.19-.58-.05-.9.15-.72.45.32.52-.7.72-7.75,1.5a27.23,27.23,0,0,0-5.84,1.42L925.08,173l2.33.37A120.25,120.25,0,0,1,940.8,176c2,.77,1.88,1.57-.27,1.42-6.9-.48-25.77-.86-26.77-.55a3.72,3.72,0,0,0-1.85,1.56c-.5.94-.41,1.34.44,2s.3.82-5.06.92c-3.37.06-6.52,0-7,0s-4.84-.15-9.69-.16c-6.25,0-9.9.25-12.55.92-5.14,1.3-9.63,3.07-9.28,3.66.16.27-.37.57-1.19.67a3.48,3.48,0,0,0-2.25,1.4l-.77,1.23,6-.39a82.41,82.41,0,0,0,11-1.55c9.56-2.23,11.68-2.52,13-1.8s8.62.65,8.19-.06,5.8-.77,12.91-.07c3.85.38,7.79.69,8.75.69,1.73,0,1.72,0-.58-1.05a5.77,5.77,0,0,0-2.86-.74c-.29.17-.36,0-.16-.3.35-.56,2.12-.85,10.46-1.71,3.83-.39,7.12.59,6.59,2a5.6,5.6,0,0,0-.32,1.67.84.84,0,0,1-.84.83c-1.66,0-1.54,1.21.29,2.74s1.85,1.56.53,2.05a16.87,16.87,0,0,1-4.62.39,19.59,19.59,0,0,0-5.48.62c-1.85.61-2.12.91-1.8,2a10.23,10.23,0,0,0,.5,1.39,39.62,39.62,0,0,0,4.1.7,14.32,14.32,0,0,1,4.6,1.18c.78.78.35.82-9.55.87-7.07,0-8,.16-9.1,1.2-1.83,1.77-2.19,3.21-.79,3.21.63,0,1.15.31,1.15.68s-.16.52-.35.33c-.36-.37-1.2.21-3.18,2.17-.63.63-1.14.82-1.14.44a.66.66,0,0,0-.62-.69c-.34,0-.46.26-.26.58s.08.58-.25.58-.49-.79-.3-2,0-2.16-.35-2.4c-.87-.54-3.47.86-3.47,1.87,0,.43-.55.78-1.23.78-.83,0-1.12.27-.91.84s-.33,1.05-1.73,1.52c-2.15.71-3.78,3.07-2.8,4,.3.3,3.36.72,6.81.95s6.27.58,6.27.8.79.28,1.75.14a14.49,14.49,0,0,1,3.93.15c2,.38,2.1.46,1,1.09-.67.37-1.1,1-1,1.41s-.44.73-1.93.73c-4.44,0-1,.95,4,1.1,2.13.06,3.22,1.23,1.15,1.23a3.41,3.41,0,0,0-2.07,1.21c-.91,1.06-1.49,1.17-4.65.89-2-.18-6.7-.48-10.47-.68-6-.32-6.86-.25-6.86.55,0,1.88-2.12,2.24-6.12,1-3.2-1-3.87-1-4.44-.32s-2,.81-4.64.81c-5.59,0-6.48.47-3.45,1.83a12.41,12.41,0,0,0,3.78,1.09c.74,0,1.43.23,1.54.5.23.61,6.32,1.25,6.32.67,0-.23,1.62-.46,3.59-.52a21.47,21.47,0,0,0,4-.34,1.33,1.33,0,0,1,1.12.22c.44.27-.69.61-2.74.82-3.78.39-6.67,1.44-6.18,2.23.17.27-.12.5-.64.5s-.8.23-.62.52-.6.69-1.72.9-2,.72-2,1.23c0,.68-1.08.85-5.51.85-3.08,0-5.67.26-5.87.59s-3.19.46-8.35.22l-8-.37-6.42,2.47c-3.53,1.36-8.86,3.28-11.84,4.26-7.46,2.46-6.45,3.14,3.5,2.33,6-.49,17.76-.61,19.71-.2.16,0-.09.3-.56.6-1,.64-6.18,1.07-17.54,1.46-13.39.46-16.92,1-16.92,2.61,0,1.2-2.13,1.43-19.77,2.09-10.9.41-22.11,1.31-28.84,2.33-3.15.48-5.9.82-6.13.77-.41-.09-8.31.58-11.5,1-2.18.28-21.89.45-39.68.35-7.38,0-14.08,0-14.88.2-7.71,1.46-39.31,2.72-46.69,1.86l-4.67-.58c-4-.53-23.42-1.21-30.93-1.08a93.48,93.48,0,0,0-10.58.75c-7.4,1.21-49.87.53-56.33-.91-1.74-.39-10.82,1.13-12.17,2a24.77,24.77,0,0,1-5.54.48c-2.73,0-6.45.25-8.26.44-3,.32-3.34.24-3.69-.86-.47-1.48-2.73-1.62-5.23-.32-1.79.93-5.81.63-13.61-1-2.42-.51-3.38-.49-4.5.11-1.57.84-1.43,1.55.48,2.39.86.38-.44.48-4.17.32s-5.65,0-6.14.48-9.13,1.63-12.65,1.56a129.71,129.71,0,0,1-17.68-2.09,26.89,26.89,0,0,0-5.4-.91c-1.57,0-5.75,1.68-8.41,3.38-.15.09.07.71.48,1.37,1,1.63.58,1.87-2.52,1.41-1.73-.26-2.65-.69-2.65-1.24s-.68-.84-2.24-.84a10.78,10.78,0,0,1-4-.9c-1.93-1-7-.87-7.64.15a6.32,6.32,0,0,1-3,.91c-1.44.18-3.28.48-4.09.66-4.44,1-8.44.46-14.21-1.91l-5.75-2.37-3,1.21c-1.65.67-4.19,1.65-5.63,2.18a33.8,33.8,0,0,0-3.21,1.31,21.47,21.47,0,0,1-2.77,1.05c-2.3.74-2.91,1.72-1.17,1.87l1.8.15a2.53,2.53,0,0,1,1.46.93c.46.58,1.7.86,3.78.85a8.35,8.35,0,0,1,3.35.38c1.13,1.83-15.08,1.12-26.32-1.15-4.8-1-10.6-1.91-12.89-2.09-5.21-.41-10.28-1.36-10.7-2-1.31-2-8-2.72-9.84-1.06a5.82,5.82,0,0,1-3.62,1,18.4,18.4,0,0,0-4.33.54c-3.45,1-7.7,1.54-9.7,1.15-4-.78-10.87-1.06-11.47-.47-1,1-3.77,0-3.4-1.18.54-1.69-2.31-2.24-7-1.37-2.25.42-4.17,1-4.28,1.33s-.66.57-1.23.57a5.24,5.24,0,0,0-2.48,1.14c-1.27,1-1.88,1.07-5.13.62s-4-.36-6,.66c-2.45,1.25-2.54,1.24-7.15-.52-4.95-1.89-6.53-2-9.52-.73a14.92,14.92,0,0,1-5.06,1.12c-2.13,0-5-.06-11.81-.08-3.75,0-5,.53-6.42,2.78-1.55,2.45-1.23,2.7,3.66,2.81,1.75,0,3.19.27,3.19.51a.47.47,0,0,1-.44.46c-.8,0-5.07.59-7,.9-1.1.18-1.9.65-1.9,1.13,0,1.28-4.24,2.13-10.14,2-13.81-.25-42.91.5-45,1.15a37.17,37.17,0,0,1-5.25.94,14,14,0,0,0-4.15.91,15.13,15.13,0,0,1-4.74.66l-4.09.14,1.38,1.29a4.71,4.71,0,0,1,1.38,1.8c0,1.28-4.93,2-15.08,2.3-10,.27-10.68.36-10.43,1.34.2.76-.16,1.18-1.26,1.51-2.29.67-2.39.64-3.18-.94-.65-1.31-1.13-1.48-4.69-1.63-3.75-.16-4.12-.06-6.89,1.93s-5.64,2.56-5.29,1c.09-.42-.37-.91-1-1.08s-1.18-.54-1.18-.83c0-.63-4.7-.62-10.21,0-2.25.26-4.35.27-4.67,0-.78-.6-11,.06-10.38.68a8.94,8.94,0,0,0,2.8,1c2.13.5,2.18.55.57.61-4,.15-5.77,1.43-2.9,2.15,1.88.47,3,2.3,1.68,2.8-1.68.64-3.74.38-3.74-.49s-2-1.77-2.91-1.21c-1.22.75-.62,3,1,3.75,1.42.65,1.48.79.57,1.3-.56.31-.86.83-.67,1.14.67,1.08-1.05,2.27-3.29,2.27-1.61,0-2.47.34-3.1,1.25-.74,1.06-1,1.12-1.67.44a6.28,6.28,0,0,1-1.19-1.83c-.52-1.39-4-1.57-5.54-.3-.93.76-8.67.18-9.77-.73s-2.88.08-3.79,1.77a2.1,2.1,0,0,1-1.47,1.15c-.47,0-.85.52-.85,1.16s-.52,1.29-1.46,1.52S57,304.9,57,305.32s-.83,1-1.84,1.4c-2.16.75-2.25.76-2.25.25Zm10.25-9.8c.82-.62.9-.86.29-.88-1.29,0,1.18-1.73,2.54-1.75,1.73,0,.89-.4-1.86-.82-2.45-.37-2.49-.35-2.37,1.25a4.93,4.93,0,0,1-.32,2.34C60.82,298.28,61.76,298.2,63.13,297.16Zm13,.49c.72-.19,1.31-.67,1.31-1.07,0-.86-2.33-2-3.36-1.64a1.06,1.06,0,0,0-.73.87,2.48,2.48,0,0,1-1,1.39c-.92.7-.85.78.73.79A14.08,14.08,0,0,0,76.08,297.65Zm1-4.26c.21-.33,1.06-.33,2.22,0s1.95.54,2,.54c.59,0,1.91-3.81,1.59-4.58a13.11,13.11,0,0,1-.48-3.45c-.05-1.92-.29-2.48-1.06-2.48a7.5,7.5,0,0,1-2.45-.66c-2.11-1-5.82.8-5.28,2.5.28.87.06,1.25-.85,1.49-1.58.41-1.55,1,.09,1.81l1.31.64-1.33.4c-1,.31-1.24.68-.95,1.64a10.07,10.07,0,0,0,.45,1.3c1.56,1.28,4.17,1.75,4.72.86Zm-37-8.16c2-1.46,2.3-3.13.49-2.88-.84.12-1.31-.08-1.22-.53.17-.88-3.16-2.69-3.61-2a2,2,0,0,0,0,1.46c.2.52.06.93-.32.93s-.52.26-.32.58.09.58-.25.58c-.75,0-.55,2.46.25,3.07s3.22,0,5-1.26Zm22.76-5c1.44-.82,1.43-.83-1-.85-2,0-2.39.16-2.13.85C60.09,281.3,60.92,281.3,62.81,280.22Zm-27.78-3c.66-1.73.4-2.56-.67-2.17-2,.75-2.63,3.09-.79,3.09A1.65,1.65,0,0,0,35,277.25Zm-3.73-1.7c0-.48-.26-.88-.58-.88s-.58.39-.58.88.26.88.58.88S31.29,276,31.29,275.55Zm192-5.49c5-.09,5.59-.33,6.17-2.63.26-1.05.21-1.55-.15-1.33a82.91,82.91,0,0,1-9.57,1c-4.95.33-9.39.69-9.87.81l-3,.65a6.18,6.18,0,0,0-2.82,1.24c-.55.66.63.76,7.13.59C215.42,270.23,220.89,270.11,223.3,270.06Zm15.54,0a19.53,19.53,0,0,0,.82-1.84c.62-1.49.61-1.89,0-2.3a1.49,1.49,0,0,0-1.4-.12,8.8,8.8,0,0,1-2.95.4c-2,0-2.37.23-2.53,1.34a1.46,1.46,0,0,0,.73,1.67c.5.19.76.6.57.91s3.94.36,4.8-.06ZM48,262.73a3.84,3.84,0,0,1,4.8,0c1.68,1.17,5,.9,5.26-.44.1-.55-.46-1.41-1.3-2-1.67-1.1-5.59-1.67-5.59-.82a.56.56,0,0,1-.57.55c-.31,0-.41-.4-.22-.9s.12-.86-.16-.81c-2.37.43-3.12-1.58-.94-2.51l1.59-.68L49.32,255c-1.59-.22-3.27-2.5-2.62-3.55.21-.33,1.54-.48,3-.34,2.74.27,5.15-.55,4.79-1.62-.11-.34-1.51-.69-3.1-.78a35.69,35.69,0,0,1-4.65-.56c-2-.46-3.67.68-5,3.43a5.14,5.14,0,0,1-1.7,2.1c-.48.22-1.46.7-2.18,1.08a7.6,7.6,0,0,1-2.92.68,7.41,7.41,0,0,0-3.36,1.16c-1,.64-1.45,1.16-1.09,1.16A7,7,0,0,1,33,259.61c1.49,1.53,2.7,2,6.63,2.86,6.14,1.27,7,1.29,8.35.25Zm283.42-1.94c.36-.36,0-1.11-1.08-2.09-1.8-1.67-2.28-1.83-2.83-.94-.2.32-1.51.58-2.92.58-3.12,0-3.89,1-2,2.5,1.16.94,2,1.09,4.83.83a10.94,10.94,0,0,0,4-.87Zm4-1.21c0-.28.85-.69,1.9-.9,1.81-.37,1.84-.43.76-1.24-1.73-1.3-3.41-1.11-3,.32.26.82.1,1.17-.51,1.17a1.59,1.59,0,0,0-1.24.58c-.2.32.18.58.84.58S335.35,259.85,335.35,259.57Zm88.28-.44c.89-.17,1.48-.52,1.32-.78s.63-.64,1.75-.85,2-.6,2-.87c0-1-2.62-1.16-3.93-.3-.73.48-1.33.74-1.33.58s-.72,0-1.6.3l-1.6.59,1.6-1.4a5.35,5.35,0,0,0,1.6-1.92c0-.67-2.86-1.93-4.38-1.93a19.47,19.47,0,0,1-3-.37c-1.32-.26-2.62,0-4.77,1.14-3.71,1.88-4,2.32-2,3.31a12.17,12.17,0,0,1,2.57,1.77c.78.78,1.49.88,3.5.5a27.89,27.89,0,0,0,3.54-.87c.6-.23,1-.13,1,.25s-.39.65-.88.65-.88.28-.88.63.7.49,1.9.26l3.51-.68ZM57.55,258c.86-.49,1.1-.84.58-.85-1.5,0-3.5.67-3.5,1.21C54.64,259.15,55.88,259,57.55,258Zm319.07-.54c2.75-.55,8.31-3,8.32-3.65,0-.91-6.33-3.26-8-2.95-.89.17-1.18,0-1-.54.53-1.39-2-1.2-5.51.42a14.67,14.67,0,0,1-3.06,1.13.59.59,0,0,0-.59.58c0,.32-.66.58-1.46.58s-1.46.26-1.46.58a.59.59,0,0,0,.58.58.59.59,0,0,1,.58.58c0,.32-.77.58-1.72.58-1.78,0-2.82.82-1.82,1.44a22.05,22.05,0,0,0,4.72.56,16.56,16.56,0,0,1,4.55.61c.36.36,2.14.2,5.79-.53Zm9.79-2.08c.2-.32,0-.58-.51-.58a1.59,1.59,0,0,0-1.24.58c-.2.32,0,.58.51.58A1.59,1.59,0,0,0,386.41,255.41ZM364,252.3a25.88,25.88,0,0,1,3.7-1.55,6.3,6.3,0,0,0,1.92-1.17l1.48-1.17-2.85-.12-5.48-.23a32.82,32.82,0,0,1-6-1c-5.68-1.57-7.83-.94-7.75,2.27,0,1.48-.16,1.73-1.27,1.61-.72-.08-1.31.12-1.31.44s.59.58,1.31.59a20.65,20.65,0,0,1,4.52,1.16c4.07,1.45,7.51,1.22,11.73-.79Zm27.37,1.37c.68-.44.52-.57-.73-.57-.88,0-1.6.25-1.6.57C389,254.4,390.23,254.4,391.37,253.66Zm84.83-.56c.39-.39.23-1-.47-1.74a7.77,7.77,0,0,1-1.45-3.08c-.35-1.67-.62-1.91-2.12-1.85-2.43.09-8.61,1.41-9.31,2-.32.26-1.93.21-3.58-.12-2.69-.53-3.12-.47-4.18.59-1.4,1.4-1.11,1.86,1.15,1.86,1.08,0,1.65-.3,1.65-.88a.88.88,0,0,1,.88-.88c.5,0,.88.52.88,1.22,0,1.14.22,1.19,3.06.82s2.95-.31,2,.44c-1.22.93-.87,1.34,1.88,2.24,1.92.62,8.85.19,9.65-.61ZM57,251.82c0-.65-.76-.62-2.71.13-1.22.47-1.43.74-.82,1.11C54.29,253.59,57,252.65,57,251.82Zm384.76.32c3.76-1.89,3.79-1.91,2.74-2.58-.63-.4-.31-.55,1.18-.58a10.48,10.48,0,0,0,4-1.07c2.71-1.44,1.41-2.3-3.25-2.15a24.24,24.24,0,0,1-3.65,0,13.12,13.12,0,0,1,1.9-1.42c1-.7,1.37-1.11.73-.91a115.53,115.53,0,0,0-12.85,5.36c-1.59,1.16-.51,1.73,1.64.86,7.2-2.91,7.42-3,7.42-1.81a1.53,1.53,0,0,0,.73,1.36c.4.16-.07.32-1,.34-2.21.06-8,2.07-8.31,2.87-.19.56,1.38,1,4.41,1.17a12.51,12.51,0,0,0,4.38-1.44Zm48.41-1.56c1.84-.77,3.18-1.57,3-1.78a8.1,8.1,0,0,0-3.09-.38,7,7,0,0,1-3.26-.55,7.55,7.55,0,0,0-2.9-.93c-1.85-.3-2.65-.13-3.77.78s-1.29,1.32-.72,2c.39.47.53,1,.32,1.23s.07.38.62.38.84.26.59.67c-.68,1.1,5.43.16,9.24-1.43Zm-7.88.1c.4-.4.87-.58,1-.4s-.14.51-.72.73c-.83.32-.9.25-.33-.33Zm46.64-2.73c1.24-.66,3.1-1.54,4.15-2,2.56-1,2.4-1.86-.29-1.44a81.43,81.43,0,0,1-11.49,1.16,19,19,0,0,0-6.45,1.1l-1.75.92,2.18.41a7.77,7.77,0,0,0,3.06.07c.56-.21.88,0,.88.6,0,.79.57.89,3.73.64a18.39,18.39,0,0,0,6-1.49Zm126.27-.07c10.87-.81,50.74-1.34,59.08-.78a70.6,70.6,0,0,0,13.13-.29c3.46-.41,8-.77,10.08-.81,7.21-.12,19-1.2,21.3-2,3.08-1,11.81-1.66,20.14-1.51a54.68,54.68,0,0,0,9.63-.55c4-.93,12-1.35,12-.62,0,.32.46.49,1,.38s2.77-.36,4.91-.57c7.22-.69,23.31-3.23,24.3-3.84.71-.43-.68-.52-4.85-.32-3.21.16-11.35.44-18.09.63a267.93,267.93,0,0,0-28.3,2c-13.82,1.53-17.21,1.61-46.1,1.09-15-.27-23.48.26-24.77,1.55s-32.82,1.67-46.43.43c-18-1.63-42-1-42,1,0,.29-.72.57-1.6.61-1.28.06-1.35.13-.35.32a2.07,2.07,0,0,1,1.53,1.29c.33,1.28,2.74,1.7,12.39,2.17,3.85.19,7.06.39,7.13.46s7.63-.16,15.92-.78ZM56.5,247.43a1.17,1.17,0,0,0-1.12,0c-.19.19.15.33.77.31s.82-.17.35-.35Zm553.08-.51c.14-.14-.72-.26-1.92-.26s-2,.24-1.84.54c.31.51,3.18.29,3.76-.29Zm-47.94-.4c-.28-.87-3.94-1.35-3.94-.52s1,1.15,2.82,1.21c.84,0,1.27-.23,1.12-.68Zm41.42.3a21.78,21.78,0,0,0-4.09,0c-1,.13,0,.23,2.2.23s3.09-.11,1.88-.23ZM45.88,245.3c.62-.26.54-.33-.24-.23a1.66,1.66,0,0,0-1.36,1c-.15.56-.07.65.24.23a3.87,3.87,0,0,1,1.36-1Zm536.83.47c7.37-.17,9.71-1,4.45-1.66a68.7,68.7,0,0,1-14.09-3.76,9.08,9.08,0,0,0-5.42-.7c-2.93.54-3.33.88-2.37,2,.61.73.58.89-.17.89a1.63,1.63,0,0,1-1.27-.58c-.53-.85-4-.71-5.24.21-1,.72-.82.83,1.77,1.22a6.88,6.88,0,0,1,4.23,1.91c1.33,1.44,1.5,1.47,6.44,1C573.8,246.12,579.06,245.85,582.71,245.76Zm-72.86-.84c0-.31-.39-.41-.88-.23s-.88.44-.88.57.39.23.88.23S509.85,245.24,509.85,244.93Zm43.58-.14c1.07-.39,1.94-.89,1.94-1.12s-3.43-.43-7.63-.43c-6.46,0-7.53.12-7,.81.43.52,2.2.89,4.86,1,2.3.11,4.56.25,5,.32a8.3,8.3,0,0,0,2.77-.58Zm-218.52-2a2.25,2.25,0,0,0-1.46,0c-.4.16-.07.29.73.29S335.31,242.93,334.91,242.77Zm106.65-4.38c0-.67-1-.62-2.39.12-1.65.89-.79,1.82,1,1,.79-.36,1.44-.88,1.44-1.15Zm53.25-1.22c1.89-.67,1.89-.67.44-1.06s-5.17-.2-8,.38c-.72.15-1.31.69-1.31,1.2,0,.8.51.88,3.5.54A31.46,31.46,0,0,0,494.81,237.18Zm41-5.11c.2-.32-.18-.58-.84-.58s-1.2.26-1.2.58.38.58.84.58A1.54,1.54,0,0,0,535.82,232.07ZM812.15,228c18.75-1.44,21-2.53,4.38-2.08-15.2.41-20.72,1-20.72,2.09,0,.61,4,1.08,6.71.79,1-.11,5.3-.47,9.63-.8Zm106.33-7.37a1.17,1.17,0,0,0-1.12,0c-.19.19.15.33.77.31s.82-.17.35-.35ZM513,203.37c2.74-1.4,2.13-2-1.11-1.12a9.86,9.86,0,0,1-3.68.29,3.59,3.59,0,0,0-2.7.6c-1,.78-1.05,1-.29,1.52,1.18.83,4.83.23,7.79-1.28Zm5.78,1.24c1.2-.33,2.19-.86,2.19-1.16,0-1.18-6.27-.17-7.85,1.27C512.31,205.43,516.08,205.35,518.75,204.61ZM688,203c1-.4,1-.47.06-1.27-1.52-1.26-17.77-1.62-17.77-.4s3.19,1.62,8.08,1.22c2.84-.23,3.65-.14,3,.31s-.09.61,2.33.59A17.66,17.66,0,0,0,688,203Zm-158.32-2.19a21.82,21.82,0,0,1,7.71-.68c4.76.28,5,0,1.36-1.85-1.9-1-2.69-1-5.8-.56-2,.31-4.39.8-5.35,1.08s-2.74.68-4,.88c-2.4.4-2.51,1.48-.13,1.22.8-.09,1.46.07,1.46.34,0,.73,1.13.62,4.71-.44Zm199.08-2.38a1.17,1.17,0,0,0-1.12,0c-.19.19.15.33.77.31s.82-.17.35-.35Zm4.56-.31c0-.25-.67-.46-1.49-.46s-1.34.25-1.16.55c.4.65,2.65.58,2.65-.09ZM37.44,196.7c-.26-2.41-2.12-3.21-4.11-1.76-1,.76-1,.88,1.2,2,3,1.57,3.11,1.55,2.91-.26Zm711.93.87c8.33-1,8.06-1.77-.54-1.43-7.7.3-8.91.44-12.55,1.42C733.18,198.39,742.69,198.39,749.38,197.56ZM818,193.79c.84-.89.64-.93-2.59-.61-1.93.19-5.53.52-8,.73-2.8.24-4.37.61-4.14,1s2.8.46,7.1.23c5.15-.28,6.95-.59,7.65-1.32Zm6.16-.82a2,2,0,0,0-1.49-.58c-.62,0-1.13.26-1.13.58s.67.58,1.49.58S824.32,193.3,824.12,193Zm-273.86-2.41c-.76-.72-7.14-1.28-7.14-.62a1.12,1.12,0,0,0,.73.89c1.12.44,6.9.2,6.41-.26Zm65.23-.53c0-1-1.63-1.3-4.53-.8l-2.76.48,3.21.36c1.77.2,3.41.41,3.65.46s.44-.18.44-.51Zm-152.34-.54c1-.66.72-.8-4-1.74-2.48-.5-3.41-.46-4.67.21s-1.35.91-.7,1.14C456.44,190,461.94,190.25,463.14,189.49Zm389.43-.65c5.35-.73,6.77-1.33,4.87-2.06a39.55,39.55,0,0,0-7.42.6c-3.63.5-7.82.92-9.32.92-1.79,0-3,.32-3.5.94-.71.85-.3.91,4.45.65,2.88-.16,7.79-.63,10.92-1.06Zm41.29.09c0-1-.37-1.1-3.1-.95-6.8.38-7.24,2-.55,2.06,3.21,0,3.65-.12,3.65-1.11Zm7.71.39c-1.4-.45-2.1-.43-2.6.06s0,.66,1.92.62l2.6-.06Zm-347-.75c.48-1.26,0-1.55-1.77-1.11s-2,1.22-.51,1.61c1.76.46,1.92.42,2.28-.5Zm114.17-.08a33.92,33.92,0,0,1,5.92-.24c4.26,0,5.6-.14,6.19-.85s-.28-.87-9.7-.54c-6.87.24-11.22.65-12.68,1.21a5.76,5.76,0,0,1-2.68.56,4.15,4.15,0,0,0-2.15.24c-1.07.33,1.3.41,6.46.22A75,75,0,0,0,668.75,188.49Zm-62.61-.54a4.8,4.8,0,0,0-2-.23c-1.12,0-2,.21-2,.47s.92.36,2,.23A5.13,5.13,0,0,0,606.14,187.94Zm106.07-.07a42.66,42.66,0,0,0-5.54,0c-1.52.12-.28.22,2.77.22S713.73,188,712.21,187.87Zm-64.37-.7c-.3-.3-2.46-.68-4.79-.84-3.43-.24-4.23-.13-4.23.55s1,.84,4.79.84C646.6,187.72,648.19,187.51,647.84,187.17Zm-175.48-.52c.57-.36.48-.71-.4-1.5-1.21-1.09-2.2-1-5.76.67-1.72.8-2,.79-2.93,0-.67-.61-1.3-.74-1.86-.4-.74.45-.73.56,0,.8l1.73.57c1.44.48,8.41.4,9.21-.11Zm148.37-.09c0-.32-.54-.58-1.2-.58s-1,.26-.84.58a1.54,1.54,0,0,0,1.2.58C620.35,187.13,620.73,186.87,620.73,186.55Zm116.59-.84c.61-.61-4.81-.32-5.7.3-.64.45,0,.53,2.25.32A12.64,12.64,0,0,0,737.32,185.71Zm-132.93-1c2.09-.32,4.19-.67,4.67-.78l1.17-.25c.16,0-.06-.28-.5-.55-1.31-.83-11-.8-12.29,0l-1.19.74,1.21.65c1.56.83,2.36.85,6.94.15Zm-61-2.2c3.31-1.58,3.41-1.69,1.75-1.88a10.27,10.27,0,0,0-3.79.51c-1.12.39-3.17,1-4.54,1.34s-2.34.88-2.15,1.18C535.35,184.77,539.91,184.16,543.4,182.49ZM29,179.84c.59-.72.48-1.07-.61-2-1.3-1.05-3.4-1.16-6.91-.35l-1.4.32,1.33.93a13.67,13.67,0,0,0,5.91,1.86,2.33,2.33,0,0,0,1.67-.81Zm40-6.09a2.55,2.55,0,0,0-2-.55c-1.21.05-1.3.13-.4.35a4.53,4.53,0,0,1,1.71.8C69,175,69.47,174.57,69,173.75Zm816.59.11c.17-.52-.61-.73-2.73-.73-2.78,0-3.53.41-2.55,1.39C880.94,175.19,885.28,174.65,885.54,173.86ZM83.23,167.79c0-1.3-3.44-4.74-4.38-4.37a1.38,1.38,0,0,1-1.33-.33c-.79-.79-5.58-.72-5.85.08a1.12,1.12,0,0,1-1,.62c-1.1,0-1,2,.1,3.79.89,1.35,1.18,1.41,6.71,1.31,5-.09,5.79-.23,5.79-1.1Zm475.9-15.64c.47-.75-2-2.37-3.61-2.37s-1.58.19-.73,1.79C555.44,152.76,558.51,153.17,559.14,152.16Zm70.64-1.5c0-.32-.72-.67-1.6-.77-1.17-.13-1.6.07-1.6.77s.43.9,1.6.77C629.05,151.32,629.78,151,629.78,150.66Zm-56.65-1.4c.52-.85-2.57-2.51-4.66-2.51a15.93,15.93,0,0,0-4.12.72c-2,.67-2.11.78-1.1,1.52,1.23.9,9.35,1.13,9.87.28Zm333.13-12.39a7.16,7.16,0,0,0-3.79,0c-1.66.48-1.42.55,1.9.55s3.56-.07,1.9-.55Zm27.87-2.27c0-.32-.51-.58-1.13-.58a2,2,0,0,0-1.49.58c-.2.33.29.58,1.13.58S934.13,134.93,934.13,134.61Zm-404-19c2.08-.56,1.57-1.58-.57-1.15s-3.58,1.52-1.89,1.51a11.87,11.87,0,0,0,2.45-.36Zm-92.65-1.38c0-.32-.39-.58-.88-.58h-1.31a.81.81,0,0,0-.63.58c-.11.32.48.58,1.31.58S437.48,114.5,437.48,114.18Zm519.34-1.37c1.27-1,4.74-1,4.74,0s3,.64,6.34-.73a4.43,4.43,0,0,1,2.48-.48c.29.18.52,0,.52-.3s.39-.62.88-.62.88-.52.88-1.17c0-1.32.1-1.31-13.57-1.41-8.24-.06-9.11.21-6.89,2.11.8.69,1.21.77,1.41.28s.3-.23.33.33a.91.91,0,0,1-.83,1c-.5,0-.88.52-.88,1.21,0,1.06.23,1.16,1.9.81a8.08,8.08,0,0,0,2.7-1.05ZM637.5,110.9c1.71-.46,1.11-1.38-.9-1.39a20.42,20.42,0,0,1-4.49-.92c-7.48-2.33-21.08-.95-14.21,1.45a17.83,17.83,0,0,0,9.25,0c2.83-.88,5.89-.73,6.94.33s1.45,1,3.4.52Zm63.58-.29c-1.45-.84-19.57-1.45-18.78-.63s3.09,1.1,12,1.18C700.05,111.21,701.86,111.07,701.08,110.61Zm-120.63-.45c.8-.22,1.19-.56.88-.74a6,6,0,0,0-2.91.4c-1.76.56-2,.74-.88.74a13.09,13.09,0,0,0,2.91-.4Zm-472.72-1.23c.26,0,.34-.53.18-1.17-.22-.86,0-1.17.78-1.18a5.43,5.43,0,0,0,2.55-1.15,5.5,5.5,0,0,1,2.19-1.15c.4,0,.73-.23.73-.5s.66-.84,1.46-1.27,1.46-1.1,1.46-1.5c0-.87,3-2,5.34-2,1.24,0,1.66-.28,1.66-1.1a1.63,1.63,0,0,0-2.8-1.09c-.71.59-.95.59-1.14,0-.14-.4-.88-.73-1.66-.73s-1.44.33-1.48.73a11.9,11.9,0,0,1-.2,1.31,14.53,14.53,0,0,0-.22,1.46c-.07.66-1,.91-3.72,1s-3.9.41-4.93,1.46c-.72.73-1.71,1.66-2.21,2.07-1.28,1.07-1.12,2.42.36,3,1.08.4,1.12.52.29.84-.53.2-1,.67-1,1s.41.51.92.31a5.31,5.31,0,0,1,1.4-.35Zm837.14.23c2.56-1,.05-1.4-8.41-1.4-6.15,0-9.34.21-9.34.61s1.45.57,3.8.49a13.27,13.27,0,0,1,4.18.26c.48.48,8.53.51,9.77,0Zm-416.35-1.28c0-.26-1-.93-2.29-1.48a23.79,23.79,0,0,1-5.11-3.61c-3-2.73-3.65-3-5.48-2-1.11.59-1.1.64.15,2.33,1.09,1.47,1.67,1.73,3.91,1.73,2.42,0,2.54.07,1.5.83s-1.09.85.33,1.38l2.33.87c1.36.51,4.67.48,4.67,0Zm138.9-1.27c1.35-.08,1.37-.13.29-.59-1.62-.7-18.48-.7-19.55,0-.63.41,0,.58,2.33.63,1.77,0,4.52.23,6.13.45a29.43,29.43,0,0,0,6.13,0c1.77-.21,3.87-.43,4.67-.48Zm63.18.77a2.25,2.25,0,0,0-1.46,0c-.4.16-.07.29.73.29S731,107.54,730.59,107.38Zm26.8,0c2-.33,2.11-.45,1.59-1.83a3.82,3.82,0,0,1-.4-1.6c1.34-1,3.37-1.26,9.42-1,3.9.14,7.45.37,7.9.51,1.34.43.19,1-2.73,1.45-1.51.21,4.82.42,14.07.46,11.12.05,16.69-.12,16.45-.51s-1-.43-1.7-.25a4.75,4.75,0,0,1-3.25-.83,4.57,4.57,0,0,0-2.65-.88,1,1,0,0,1-1.18-.43c-.33-.53.06-.62,1.55-.34s1.73.22,1-.21a6.67,6.67,0,0,0-3.47-.19c-2.11.34-2.29.47-1.2.87.7.26,1.26.81,1.23,1.22,0,.59-.11.59-.34,0a1.53,1.53,0,0,0-1.36-.73,1.39,1.39,0,0,1-1.29-.65c-.13-.38-2-.74-4.57-.85s-6.19-.32-8.44-.47c-15.15-1-23.38-1.07-25.5-.18-1.94.81-2.23.81-2.9,0s-1.79-.84-7.48-.5c-10.13.6-29.19.46-37-.28s-10.41-.46-9,.9c.53.53,2.74.92,6.3,1.12a40.68,40.68,0,0,1,5.72.54c.13.13-.7.41-1.84.62-2,.38-2.8,1.2-1.34,1.41,6.14.87,8.94,1.06,12.11.84,2.09-.15,5.24-.28,7-.29,7.68,0,8.75.1,9.76,1.29s1.72,1.17,11.23,1.16c5.63,0,11.2-.17,12.38-.36Zm-195.86-1.45c.62-1-1-1.72-3-1.32-2.24.46-2.72.76-2.31,1.43s4.78.68,5.27-.11Zm-16-1.6c2.1.13,8.74-1.26,10.38-2.17,1.33-.73,1-.79-3.49-.53a43.16,43.16,0,0,0-6.71.81c-1,.29-2.47.68-3.36.88-1.1.24-1.6.72-1.6,1.53,0,1.11.09,1.12,1.71.28a7.27,7.27,0,0,1,3.06-.81Zm36-.28c2.57-1.06,3.05-1.48,2.86-2.53s-.09-1.21,1.29-.66c1.82.73,6.46.62,7.42-.18a1.65,1.65,0,0,1,1.19-.43c1.23.34,3.13-.84,3.13-1.94s-.24-1.15-3.06-.76a23.92,23.92,0,0,0-4.52,1,4.81,4.81,0,0,1-2,.46c-.32-.08-2.29-.28-4.38-.45a13.34,13.34,0,0,1-4.35-.83c-.93-.88-3.41-.64-3,.3.47,1.21-1.71,3-2.68,2.21-1.35-1.12-9.21-1-12.68.15l-2.63.89,2.33-.29c1.28-.16,3.17-.44,4.18-.63,1.53-.29,2.08-.07,3.21,1.25,1.8,2.11,6.53,4.2,8.86,3.91a25,25,0,0,0,4.92-1.49Zm28.84,1.3c-1-.92-4.7-1.69-8-1.69-3.86,0-4.73.34-3.78,1.49.41.5,2.41.7,6.39.64,3.19,0,5.6-.24,5.38-.44Zm236.24,0c1.44-.21,2.23-.45,1.75-.53a5.26,5.26,0,0,0-1.31-.09c-.24,0-.37-.26-.29-.66a.46.46,0,0,0-.58-.59c-.43.09-.67-.38-.58-1.17.13-1.24-.1-1.32-4.17-1.48s-4.29-.13-4,1.07c.24.93.11,1.16-.54.91-.47-.18-.72-.1-.55.18.49.79-1.26,2-3.64,2.44-2.68.54,10.08.47,13.89-.08ZM840,102.12a2.25,2.25,0,0,1,1.46,0c.4.16.07.29-.73.29S839.62,102.29,840,102.12ZM460.93,105a1.17,1.17,0,0,0-1.12,0c-.19.19.15.33.77.31s.82-.17.35-.35Zm72.17-.49c.66-.66-.89-1.45-2.86-1.45-2.41,0-3.32,1.39-1.28,1.94,1,.27,3.71-.06,4.14-.49Zm318.15.33c0-.69-1.14-1.43-1.56-1s.32,1.56,1,1.56A.55.55,0,0,0,851.25,104.88Zm6.71-.62c-.2-.32-.1-.58.21-.58a1,1,0,0,1,.81.72c.17.51.56.4,1.34-.37.6-.6,1.18-.82,1.29-.49.24.71,2.48.24,2.48-.51,0-.28-1-.52-2.29-.52a13.06,13.06,0,0,1-3.36-.38c-.59-.21-.87-.17-.64.09.59.65-.71,2.12-1.46,1.65-.35-.22-.43-.09-.19.3a1.67,1.67,0,0,0,1.29.67C857.93,104.84,858.16,104.58,858,104.26Zm20.13,0a9,9,0,0,0,3.5-.61c1.56-1-.55-1.73-4.37-1.46-1.92.14-5,.3-6.88.37s-3.53.35-3.7.62a.61.61,0,0,1-.84.16c-.3-.18-.38.07-.2.55.28.72,1.23.84,5.1.64,2.62-.13,5.94-.26,7.39-.28Zm46.1-1.5c3.49-.44,7.4-1.82,6.82-2.4-.2-.2-4,0-8.5.4-6.57.62-8.07.92-7.81,1.59.47,1.22,2.51,1.79,4.52,1.27,1-.25,3.21-.64,5-.86Zm-119.78-.06c2.46-.66,1.32-1.39-1.75-1.12l-3.5.3a.57.57,0,0,0-.44.61c0,.64,3.6.78,5.69.22Zm137.15,0a4.79,4.79,0,0,0-2,0c-.56.15-.1.27,1,.27S942.13,102.84,941.57,102.69ZM853,101.34a1.45,1.45,0,0,0-2.59-.64c-.18.29.2.39.84.22.81-.21,1.17,0,1.17.64s.13.94.29.94.29-.53.29-1.17Zm-208.08-.65c.32-.3-1.5-.5-4.38-.47-4.67,0-4.84.09-3.18.86C639.18,101.92,643.86,101.68,644.92,100.69Zm42-.19c-5.31-3.19-5.65-3.29-10.68-3.19-3.19.06-5,.34-5.15.8s-1.9.67-5.64.6c-6.33-.13-7.65.18-5.21,1.2,2.26.95,6.79,1.31,7,.56.11-.32,1.95-.88,4.09-1.25,3.35-.57,4.09-.53,5.35.29,2.56,1.66,4.86,2.28,8.75,2.34l3.79.06L687,100.5Zm139.34,1a2.25,2.25,0,0,0-1.46,0c-.4.16-.07.29.73.29S826.71,101.7,826.3,101.54Zm6.27-.2c0-.32-.85-.57-1.9-.54-1.59,0-1.71.12-.73.54C831.56,102,832.58,102,832.58,101.34Zm4.09.12c0-.25-.79-.52-1.75-.59s-1.75.13-1.75.46.79.59,1.75.59S836.66,101.72,836.66,101.47Zm12-.12c.2-.33-.24-.58-1-.57-1.08,0-1.18.12-.47.57C848.25,102,848.19,102,848.63,101.34Zm-220.78-1a1.17,1.17,0,0,0-1.12,0c-.19.19.15.33.77.31s.82-.17.35-.35Zm232.72-.58c.14-.13-.58-.16-1.6-.09s-1.87.35-1.87.61c0,.43,2.87,0,3.47-.53Zm-369.24-.34c.31-.92,4.52-1,4.52-.06,0,.38.89.67,2,.67,2.54,0,2.58-.49.15-1.88A22.12,22.12,0,0,1,494.88,96a4,4,0,0,0-6.21,1.13c-.6,1-.93,2.15-.72,2.48.52.85,3.07.75,3.37-.13Zm43.15.33a1.17,1.17,0,0,0-1.12,0c-.19.19.15.33.77.31s.82-.17.35-.35Zm82.87,0a1.17,1.17,0,0,0-1.12,0c-.19.19.15.33.77.31s.82-.17.35-.35Zm273.23-1.65c2.13-1.11,2.66-1.1,4,.12,1,.93,1.07.93.68-.1-.29-.75-.21-1,.27-.66s.68.17.68-.13c0-.88-2.14-1.2-6-.92-7.72.56-10.36,1.21-8.23,2,1.94.76,6.89.56,8.64-.36ZM924,98.08c3.05-.31,4.37-1.21,4.67-3.17.24-1.54-1.41-1.7-4.7-.45-1.74.66-3.09.88-3.5.56-2-1.53-6.57-1.15-9.53.79l-1.54,1,1.28.68c.7.38,1.14.82,1,1C911.33,98.85,919.21,98.57,924,98.08Zm-419.89-.75a4,4,0,0,1,1.93-1.39c.95-.24.88-.31-.33-.36a3.61,3.61,0,0,0-2.27.66c-.46.43-.63.46-.41.07s-.26-.79-1.23-1-2.36-.51-3.29-.73l-1.69-.41,1.32,1.32c1.28,1.28,4,2.92,4.79,2.93.22,0,.75-.49,1.17-1.09Zm112.08-.46a2.25,2.25,0,0,0-1.46,0c-.4.16-.07.29.73.29S616.61,97,616.21,96.87Zm317.33-.49c-.35-.71-4.14-.42-5,.38-.38.37.44.5,2.33.39,1.7-.11,2.8-.42,2.63-.76ZM591.71,96c-.36-.36-2.58-.77-4.93-.91-3.95-.23-4.19-.18-3.14.66C585,96.87,592.81,97.12,591.71,96Zm-145-1.88,1.35-.75-2.26-1.56a6.77,6.77,0,0,0-6.37-1.21c-1.19.32-1.2.39-.26,1.34C442.13,94.91,444.22,95.51,446.71,94.13Zm425.56-6.47c4.15-.53,11.43-1.26,14.15-1.43,1.08-.07,1.16-.19.44-.67-1.08-.73-24-.15-26.61.67s-3.81,1-9.14,1.44a29.7,29.7,0,0,0-5.1.67c-.34.32,23.2-.28,26.26-.67ZM543,87.32c.91,0,.91-.06,0-.58-1.08-.63-2.82-.18-2.82.73,0,.32.42.42.92.23a6.7,6.7,0,0,1,1.9-.37Zm118.28-.53c.32-.23,6.23-.47,13.13-.53s13-.26,13.64-.45a1.38,1.38,0,0,1,1.51.33c.32.51,2.42.53,8.54.06,4.46-.34,8.77-.61,9.57-.6,1.35,0,1.38.08.42.8s-.92.83-.13,1.14c1,.39,19.55-.06,23.63-.58,2.39-.3,2.52-.4,1.51-1.13-1.66-1.21-6.95-2.6-11-2.89-17.76-1.28-33-1.64-38.64-.92-10,1.28-24.1,1.5-29.83.47-9.33-1.69-33.81-2.42-37.58-1.13-3.27,1.12-7,1-12.11-.39a26.4,26.4,0,0,0-6.08-1.12c-1.91.28-2,1.55-.09,1.94.91.19,2.59.59,3.75.9a30.28,30.28,0,0,0,13.72.33c5.28-1.37,14.05-1.7,17.52-.64a20.3,20.3,0,0,0,4.1.87c.7,0,1.35.26,1.46.57.18.51,4.51,1,9.82,1.14a6.2,6.2,0,0,1,3.79,1.55c1.6,1.38,2,1.47,5.25,1.1a16.32,16.32,0,0,0,4.09-.82Zm116.43-.08c4.33-.35,9.72-.64,12-.66,5.48,0,7.72-.94,2.63-1.05a42.73,42.73,0,0,1-5-.33c-3.68-.77-27.48.06-44.94,1.58-.64.06,2.38.39,6.71.74a168.18,168.18,0,0,0,28.6-.28ZM594.58,84.6a1.17,1.17,0,0,0-1.12,0c-.19.19.15.33.77.31s.82-.17.35-.35Zm-1.28-2.11c0-1.38-1.37-2.16-3.76-2.16h-2.36l1.75,1.44c1.88,1.54,4.38,2,4.38.72ZM913,82.26a3.34,3.34,0,0,0-1.75,0c-.4.16.07.28,1,.27s1.29-.14.72-.29Zm7-.76c.47,0,.72-.23.55-.51-.41-.67-3.26-.11-3.26.64,0,.32.42.42.92.22a6,6,0,0,1,1.79-.35ZM445,79.77c1.29-.82.42-1.27-2.64-1.38-1.67-.06-2.86.17-3,.59C439,80.06,443.57,80.71,445,79.77Zm5.57-.62a.68.68,0,0,1,.92-.25,4.78,4.78,0,0,0,2.44-.09c1.86-.43,1.86-.44.42-.86-1.61-.47-5.84-.69-5.84-.3a6,6,0,0,0,.35,1.17c.4,1.05,1.16,1.2,1.69.33Zm475.85-2.78a5.38,5.38,0,0,1,2.76-.85,11.45,11.45,0,0,0,3-.64c.91-.56,1.28-2.61.53-2.9-1.88-.72-13.8,2-13.8,3.1,0,.27-.59.69-1.31.92-1.13.36-.95.51,1.31,1.08,2.74.68,6.88.3,7.51-.7Zm-465.64.1c0-.13-.39-.23-.88-.23s-.88.25-.88.57.39.41.88.23S460.82,76.6,460.82,76.48Zm370.29-2.56c.2-.33,0-.43-.55-.23-1,.39-1.2.81-.36.81a1.24,1.24,0,0,0,.91-.58Zm23.06,0c.48-.1-1.36-.34-4.09-.54-6-.44-17.51,0-17.51.6C832.58,74.36,852.09,74.31,854.17,73.89ZM469,72.75c0-.32-.41-.58-.91-.58s-.75.26-.55.58a1.25,1.25,0,0,0,.91.58A.57.57,0,0,0,469,72.75ZM938.4,71.31c-.17-1.88.91-3.23,2.6-3.28a9,9,0,0,0,2.75-.54c.92-.39.66-.51-1.2-.54a6.82,6.82,0,0,0-3.5.82,4.43,4.43,0,0,1-2.06.88,3.53,3.53,0,0,0-2,1.17c-.87,1-.92,1.31-.29,2.07,1.1,1.32,3.81.89,3.68-.58Zm-521.82.45a1.17,1.17,0,0,0-1.12,0c-.19.19.15.33.77.31s.82-.17.35-.35Zm47.75-1.24c0-.82-1.37-1.87-2.45-1.87a1.09,1.09,0,0,0-.66,1.95c.55.55,3.11.49,3.11-.08Zm96.29-.64c1.78-.49,1.82-1.31.12-2.16a13,13,0,0,1-2.42-1.67c-.88-.79-1.67-.95-3.36-.65-5.69,1-7,2.83-2.31,3.14,1.91.12,2.73.43,2.73,1,0,.91,2.58,1.06,5.25.32ZM407.84,68.58c-2.62-1.21-4.79-1-4.79.41,0,.64.85.82,3.65.79l3.65,0-2.5-1.15Zm66.2-.36c-.89-3.19-1.09-3.65-1.58-3.65-.78,0-.67,2.15.18,3.51S474.43,69.61,474,68.22Zm306.6.8c0-.12-.53-.36-1.17-.53s-1.17-.07-1.17.22.53.53,1.17.53S780.64,69.14,780.64,69ZM601.13,67.2c0-.32-1.16-1-2.53-1.5a7,7,0,0,0-5.21-.23c-3.7.94-4,2.47-.57,2.72C596.44,68.45,601.19,67.89,601.13,67.2ZM403,66.33c-1.15-.74-3.5-.74-3.5,0,0,.32,1,.58,2.19.57C403.36,66.9,403.7,66.75,403,66.33Zm10.5-1.06a4.12,4.12,0,0,0-.79-1.55c-.54-.75-.91-.87-1.2-.4-.58.94-2.1.84-2.1-.14s-1.27-1.52-3.84-1.52c-2.06,0-2.34.31-1.47,1.67.76,1.2,9.4,3,9.4,1.94Zm32.28-3.33c2.23-1.11,3.37-1.1,1.89,0s-.84,1.09,1.81,0,3.7-1.11,3.7,0c0,.59.43.79,1.31.63a20.38,20.38,0,0,1,2.33-.29c1.74-.07,1.12-1.07-.88-1.39-3.79-.62-6-1.34-5.72-1.89.6-1.32-2.61-2.09-7.46-1.79-5.11.32-6.12,0-10.31-2.92-5.19-3.65-21.63-8.47-22.75-6.66-.2.33-.16.6.1.6a12.68,12.68,0,0,1,2.81,1.49c2.47,1.57,2,1.56-3.34-.05-2.8-.84-3.63-.89-5.11-.27-2.06.86-2.19,1.41-.61,2.76,1.25,1.07,5.79,2.6,6.47,2.18.39-.24,2.23,0,13.09,1.45,12.9,1.77,14.73,2.35,10.65,3.41-1,.27-2,.91-2.07,1.42-.14.72.81,1.12,4.38,1.82,4.92,1,7,.86,9.7-.49Zm-53.16-2.16c.18-.53,1-.55,3.57-.1,1.84.33,3.45.42,3.59.2.33-.54-5.75-3.49-7.19-3.49a19.07,19.07,0,0,0-2.94.36c-1.63.33-1.74.48-1.15,1.6,1.1,2.08,3.61,2.95,4.12,1.42Zm12.7-2.22c0-.32-.54-.58-1.2-.58s-1,.26-.84.58a1.54,1.54,0,0,0,1.2.58C405,58.16,405.38,57.89,405.38,57.57ZM214.54,55.24a.57.57,0,0,0-.55-.58,1.25,1.25,0,0,0-.91.58c-.2.32,0,.58.55.58S214.54,55.56,214.54,55.24ZM379.68,53c.36-.79.52-1.56.36-1.72-.56-.56-4.71-.43-4.61.15.05.32.18,1,.29,1.46s-.34.94-1.41,1.06c-1.5.17-2,.69-1.32,1.37a8.66,8.66,0,0,0,3.16-.3c2.17-.44,3-.94,3.53-2Zm8.78,2.3c0-1-1.71-1.91-2.86-1.55-1.71.54-.85,2.06,1.17,2.06C387.7,55.82,388.46,55.59,388.46,55.31Zm-228.19-2.7c1.91-.73,1.82-1-.29-1-2.5,0-3.21.22-3.21,1C156.77,53.66,157.55,53.66,160.27,52.61Zm24-1.27a1.17,1.17,0,0,0-1.12,0c-.19.19.15.33.77.31s.82-.17.35-.35ZM225,50.25c1.2-1.2-5.11-1.86-10-1.05-2.32.38-2.87,1.12-1.17,1.55C215.16,51.08,224.57,50.66,225,50.25Zm36.09-.08a3.34,3.34,0,0,0-1.75,0c-.4.16.07.28,1,.27s1.29-.14.72-.29ZM382,49c0-1-.83-1-2.51-.14-1.23.66-1.23.69-.11,1.09,1.46.52,2.61.1,2.61-.95ZM289,49.5c1.49-.26,2.33-.73,2.33-1.28s-1-.87-5.36-.88c-3,0-5.55-.21-5.79-.44a7.18,7.18,0,0,0-3-.42c-2.14,0-2.54.17-2.37,1s.67,1,2.09.84a3.63,3.63,0,0,1,2.8.73C280.64,50.05,284.77,50.25,289,49.5Zm-34-1.08a1.17,1.17,0,0,0-1.12,0c-.19.19.15.33.77.31s.82-.17.35-.35Zm9.81-.13c0-.78-3.24-1.77-4.63-1.4s-1.58,1.1-.48,1.54c1.27.51,5.11.41,5.11-.14ZM378.88,48l1.64-.85-2.6-1.18a15.21,15.21,0,0,0-3.33-1.19c-.89,0-.95,1.41-.13,2.94.72,1.35,2.17,1.44,4.41.28Zm-45.65-2.7C336,44,337.28,43.61,338.07,44a10.57,10.57,0,0,0,3.26.65c1.86.1,2.19-.06,2.19-1.1,0-2.9-2.72-5.82-3.79-4.07a2.91,2.91,0,0,1-2,.58,4.19,4.19,0,0,0-2.59.91,2.73,2.73,0,0,1-1.94.78,7.32,7.32,0,0,0-2.78.56c-1,.38-2.08.81-2.48.95s-.73,1.05-.73,2c0,2.32,1.15,2.31,6,0Zm15-1.67c0-.79-1-1.31-1.4-.71s.16,1.26.92,1.26a.52.52,0,0,0,.49-.55Zm17.75.19c1.54-.59,1-1.4-.87-1.4a7.45,7.45,0,0,1-2.92-.6c-.85-.46-1.13-.41-1.13.18C361,43.77,363.55,44.71,365.94,43.8ZM205.19,41.38c0-.46-4.07-2.52-4.07-2.08a6.23,6.23,0,0,0,.6,1.39C202.3,41.75,205.23,42.34,205.19,41.38Zm10.52-.79a.56.56,0,0,0-.58-.52.6.6,0,0,0-.58.62c0,.34-.3.43-.67.2s-.52-.16-.27.23C214,41.83,215.71,41.41,215.71,40.59Zm-8.64.25a1.17,1.17,0,0,0-1.12,0c-.19.19.15.33.77.31s.82-.17.35-.35Zm157.46-.18c0-.32-.46-.58-1-.57-.87,0-.89.09-.15.57C364.46,41.36,364.53,41.36,364.53,40.65Zm35.81-.36c4-.67,4.45-.85,4.45-1.92a1.63,1.63,0,0,0-1.31-1.44c-1.69-.45-9.19,1.89-9.19,2.87s1.14,1.42,2.84,1.07c.76-.16,2.2-.42,3.21-.59Zm-119.85-.07a3.56,3.56,0,0,0-.84-1.07c-.84-.84-1.88-.17-1.26.82C278.69,40.45,280.49,40.67,280.49,40.22ZM180.11,38.86c0-.34-.26-.46-.58-.26s-.58.48-.58.62.26.26.58.26A.6.6,0,0,0,180.11,38.86ZM409.33,36c-.24-1.26-1.93-1.16-1.83.1,0,.56-.15,1-.44,1a.55.55,0,0,0-.52.57c0,.35.59.3,1.48-.1S409.44,36.54,409.33,36ZM207,36.56c0-.92-3.18-1.6-4.67-1l-1.46.58,1.93.44a7.89,7.89,0,0,1,2.25.75c.42.42,2-.18,2-.77Zm11-2.45c1.05-1.05.85-2.09-.49-2.52a2.22,2.22,0,0,0-2.89,2.12c0,1.27,2.25,1.53,3.38.4Zm209.92.12a1.28,1.28,0,0,0-.94-.58c-.32,0-.42.26-.22.58a1.28,1.28,0,0,0,.94.58C427.95,34.81,428,34.55,427.85,34.23ZM206.37,32.48c0-.32-.51-.58-1.13-.58a2,2,0,0,0-1.49.58c-.2.33.29.58,1.13.58S206.37,32.8,206.37,32.48Zm5.4.2a2.25,2.25,0,0,0-1.46,0c-.4.16-.07.29.73.29S212.17,32.84,211.77,32.67Zm207.87-3c.18-.28-.27-.67-1-.87-1.92-.52-2.18-.46-2.18.51S419.09,30.52,419.64,29.63Zm-6.81-1.24c.18-.94-5.27-3.25-6.24-2.65a3.17,3.17,0,0,1-2-.24c-2.17-.82-2.5.33-.41,1.41a8.19,8.19,0,0,0,3,.9,3.51,3.51,0,0,1,2.14.91c1.1,1.1,3.31.89,3.54-.33Zm18.81-.73c0-.24-1-.44-2.33-.44s-2.33.24-2.33.53,1,.49,2.33.44,2.33-.28,2.33-.53Zm-78.13-1.34c3.94-1.39,6.93-2.78,6.93-3.24,0-1.53-5.18-1.43-8.3.15-3.7,1.88-4.09,2.25-3.31,3.19s1.54,1,4.68-.1ZM320,22.19c.72-.19,1.31-.65,1.31-1a5.69,5.69,0,0,1,1.46-2.24c1.74-1.87,1.86-2.79.36-2.79-1.24,0-2.61,1.36-2,2,.22.22-.18.56-.9.75a4.28,4.28,0,0,0-2.18,2C317.16,22.69,317.44,22.88,320,22.19ZM346.6,14c.53-.53-1.34-3.14-2.25-3.14-.68,0-2,1.68-2,2.55,0,.26,1.46.65,3.26.87A1.34,1.34,0,0,0,346.6,14ZM352,11.65c2.28-1.09,2.46-1.46,1.23-2.49-.6-.49-1.42-.53-2.88-.13a5.21,5.21,0,0,1-2.29.32c-.14-.14-.59.17-1,.67-.65.78-.58,1,.5,1.25.69.18,1.26.56,1.26.85,0,.76.88.63,3.19-.47ZM5.19,273.54a1.43,1.43,0,0,1,.9-1.44c.54-.17.26-.22-.62-.12s-1.6-.07-1.6-.39-.74-.43-1.7-.24c-1.25.25-1.79.09-2.06-.61a1.57,1.57,0,0,1,.23-1.54c1-1,2.8-1,3.16-.07A1.72,1.72,0,0,0,5,270c.67,0,1.06.26.86.58s0,.62.55.66c1.69.14,2,.22,2.46.7s-2,2.7-3,2.72C5.55,274.67,5.24,274.16,5.19,273.54Zm27-117.75c-.32-.83-.25-.9.33-.33.4.4.58.87.4,1s-.51-.14-.73-.72ZM984.95,134.1l-1.41-.39,1.64-1.07c1.54-1,1.76-1,3.63-.13,1.09.52,1.83,1.21,1.63,1.53-.4.64-3.31.68-5.49.07Zm2.29-18.75a4.75,4.75,0,0,0-2.16-.57c-1,0-1.23-.29-1-1.26a4.6,4.6,0,0,1,.47-1.47c.43-.43,5.08,2.37,4.89,2.94C989.11,115.84,988.23,116,987.23,115.35Zm23.21-10.95c-.37-1.41.91-2.63,1.81-1.73s.85,2.76,0,2.76c-.36,0-.49-.45-.29-1,.33-1,.3-1-.45,0s-.82,1-1.08,0ZM79.93,98.52c-.53-.85-.5-1.07.15-1.07a1,1,0,0,1,.82,1.07c0,.59-.07,1.07-.15,1.07A4,4,0,0,1,79.93,98.52Zm890.81-6c.4-.4.87-.58,1-.4s-.14.51-.72.73c-.83.32-.9.25-.33-.33Zm31.38-10.28a10.34,10.34,0,0,1-2.72-1.39,5.86,5.86,0,0,0-2.41-1.1,2.47,2.47,0,0,1-1.59-.88,2.83,2.83,0,0,0-1.92-.88c-.66,0-1-.15-.85-.34a10.9,10.9,0,0,1,3.74.09c1.87.24,3.08.54,2.68.68-1,.35-.91,1.32.15,1.32.48,0,.88.26.88.58s.59.59,1.31.59c2.06,0,4,.66,3.61,1.23s-1,.57-2.88.09Zm-5.06-8.32a15.87,15.87,0,0,1-4.28-.69c-.21-.21-.1-.93.26-1.59.83-1.55,4.12-2.47,5.16-1.44.41.41.68.87.58,1s.47.81,1.24,1.48,1.3,1.29,1.17,1.37A28.41,28.41,0,0,1,997.06,73.92Zm22.69-5.63a18.25,18.25,0,0,0-3.42-1.36c-2.75-.9-3.06-1.17-3.06-2.68s.29-1.75,2-2.13c2.46-.54,4.81-.09,4.49.87-.13.39.77,1.7,2,2.92a16.36,16.36,0,0,1,2.24,2.48C1024,68.8,1020.16,68.71,1019.74,68.29ZM526.36,66.05A9,9,0,0,1,524.07,65a2.18,2.18,0,0,0-1.34-.41c-.81,0-.82.08,0,.57.48.31.61.57.29.56-.75,0-2.89-2.3-3.38-3.63s.48-1.38,1.16-.23a8.25,8.25,0,0,0,4,2.46,14.75,14.75,0,0,1,2.61.91c2.45,1,1.65,1.72-1,.82ZM122.9,62.52c-.41-.49-.59-1-.41-1.21.45-.45,2.76.84,2.76,1.54C125.25,63.72,123.73,63.51,122.9,62.52Zm409-2.44c-3-.33-2.79-1.34.23-1.34,1.53,0,2.66-.34,3.09-.92.61-.83.82-.8,2.11.24.79.64,1.25,1.34,1,1.56C537.81,60.15,534.6,60.38,531.88,60.08Zm476.37-1.14c0-.54-.17-.8-.39-.59s-.76-.15-1.22-.8a1.65,1.65,0,0,0-1.95-.83c-1,.32-1.1.09-1-2.28.17-2.66,1-4.53,1-2.24,0,.72.84,1.88,2,2.79s1.9,1.77,1.74,2,.23.64.88.85c1.52.48,1.53,2,0,2-.7,0-1.17-.39-1.17-1Zm-890-2c0-.34.79-1.06,1.75-1.6s1.75-1.43,1.75-2c0-.83.52-.92,3.65-.65,6.07.52,6.5,2.42.63,2.79a7.29,7.29,0,0,0-3.63,1.1c-1.15,1-4.16,1.28-4.16.33Zm424.36-.74c-1.17-.68-1.24-.86-.42-1.17a10.08,10.08,0,0,1,3.52,0,11.16,11.16,0,0,0,4.24-.23c1.45-.51,1.69-.44,1.76.51.05.67-.3,1.1-.9,1.1s-2.3.14-3.9.31a7.45,7.45,0,0,1-4.3-.5Zm325.67-3.64c-1-.5-1.14-.8-.58-1.06s-.07-.27-1.11-.17c-1.23.12-1.9-.07-1.9-.54s-.46-.83-1-.95.21-.23,1.73-.24,2.61.2,2.45.46.11.32.61.13.91-.61.91-.93.63-.43,1.46-.22,1.46.12,1.46-.35.16-.56.7,0c.9.9,2.42.92,1.87,0-.28-.46,0-.58.75-.37a1.59,1.59,0,0,0,1.83-.76c.86-1.38.41-1.6-3.58-1.76-2.37-.1-3.32-.36-3.32-.94,0-.74,3.25-2.32,4.21-2a17.3,17.3,0,0,0,3.5-.71c1.7-.46,2.62-.85,2.06-.87s-1-.26-1-.53,1.73-.55,3.84-.62c5.37-.17,7.69-.52,9.8-1.48a22.3,22.3,0,0,1,5.37-1.21c4.41-.47,5.65-1.14,4.19-2.26-.56-.43-1-.89-1-1a12.14,12.14,0,0,1,3.36.06c4.54.4,10.73-.29,13-1.44s6-1.64,5.49-.77c-.32.52,2.41.34,6.78-.43,1.13-.2,1,0-.73.92-1.2.65-2.19,1.43-2.19,1.73s1.32.72,2.94.94c3.25.43,3.27.8.08,1.74-1.18.35-2.08.94-2,1.31s-.91.68-3.05.68a18.61,18.61,0,0,0-5.4.83A30.1,30.1,0,0,1,914.57,41c-1.6.24-3.18.49-3.5.56l-4.09.84a17,17,0,0,0-4.13,1.23,7.26,7.26,0,0,1-2.63.79c-9.23,1.29-11.48,1.69-12.45,2.21s-1.07.62,0,1.19c1.53.86,10.19.62,14.14-.39,1.85-.47,6.26-1.42,9.79-2.11s7.71-1.62,9.3-2.07,3-.83,3.18-.83A28,28,0,0,1,920.44,45c-2.2,1.44-4.55,2.63-5.22,2.63-1.69,0-8.21,2.1-9.83,3.15a14.32,14.32,0,0,1-4.82,1.2l-6.71.68c-6.63.69-24.18.62-25.58-.1ZM972.64,50V49c0-.24.33-.44.73-.44a1.65,1.65,0,0,0,1.17-.58c.29-.39.59-.37.88,0a8.8,8.8,0,0,0,1.75,1.51c1.26.86,1.21.9-1.6,1-1.66.06-2.92-.15-2.92-.49ZM656.28,46.77c-.75-.75-3.27-1.32-6.94-1.58a5.22,5.22,0,0,1-3.27-2.93c-.06-.41.56-.75,1.43-.78A100.07,100.07,0,0,0,659,39.81c4.35-.81,21.58-.8,26.1,0,1.37.25,3.41.52,4.54.61,3.77.29,5.84.9,5.43,1.59-.22.37,0,.33.54-.09.77-.62,1.07-.62,1.67,0a3.16,3.16,0,0,0,2.53.54l1.79-.25-1.34,1.19c-1.33,1.18-4.9,1.43-6.47.46a1.38,1.38,0,0,0-1.32,0,27.66,27.66,0,0,1-6,.5,27.51,27.51,0,0,0-6,.5c-1.14.71-11.26,1-11.26.33,0-.33-.44-.16-1,.37a2.69,2.69,0,0,1-2.53.66,5.7,5.7,0,0,0-3.18.53c-2.11,1.09-5.09,1.07-6.21,0Zm210.29-.67c-1-.39-.94-2.53,0-2.53.41,0,.8.66.87,1.46a3.57,3.57,0,0,1,0,1.41l-.87-.34Zm-157.18-.43a14.48,14.48,0,0,0-3.16-.55,23.54,23.54,0,0,1-4.32-.83c-1.35-.5-1.31-.56,1-1.49,2.6-1,5-1.18,9.85-.6,2.91.35,4.35,1.37,1.93,1.37a2,2,0,0,0-1.49.58c-.2.32,0,.59.4.59s.52.16-.11.57C712.65,45.88,709.85,46.11,709.39,45.66Zm122.61-1c0-1,.16-1.1,1.25-.52s1.08.77.44,1.18c-1.26.8-1.68.63-1.68-.66Zm9.34.6c0-.32.41-.58.91-.58s.75.26.55.58a1.25,1.25,0,0,1-.91.58A.57.57,0,0,1,841.33,45.32Zm5.11.19c-1.48-.4-1.25-1.17.44-1.5.8-.15,1.46-.07,1.46.18s2.21.41,4.91.36c3.6-.07,4.76.07,4.36.56-.54.65-9.09,1-11.17.4Zm16.34,0c-1.49-.23-2.36-1.92-1-1.92.34,0,.46.26.26.58s0,.58.51.58a1.59,1.59,0,0,0,1.24-.58,1.31,1.31,0,0,1,1-.58c.42,0,.41.25,0,.78s-.48,1-.27,1.17.27.34.14.3-1-.2-1.85-.33Zm-260.3-.82c.4-.4.87-.58,1-.4s-.14.51-.72.73c-.83.32-.9.25-.33-.33Zm216.09.07c-.53-.34-.6-.57-.18-.57a1.36,1.36,0,0,1,1.06.57C819.89,45.46,819.69,45.46,818.57,44.73Zm3.06.12c-2.22-.35-1.45-1.15.85-.89a10.12,10.12,0,0,1,2.36.43C825.2,44.74,823,45.06,821.64,44.86Zm4.23-.12c-.2-.32-.08-.58.26-.58a.6.6,0,0,1,.62.58c0,.32-.12.58-.26.58s-.42-.26-.62-.58Zm1.46.13c0-.33.39-.74.88-.93s.88-.24.88-.13a3.24,3.24,0,0,1-.88.93C827.7,45.15,827.33,45.21,827.33,44.87Zm145.9-.06c0-.32-1.18-.77-2.63-1S968,43.25,968,43c0-.55,5.23-1.55,6.89-1.32,1.89.27,1.61,3.22-.33,3.5-.72.1-1.31-.08-1.31-.4Zm-368-.65c-.2-.33,0-.43.55-.23,1,.39,1.2.81.36.81a1.24,1.24,0,0,1-.91-.58ZM814.9,44c-.17-.43.16-.79.77-.84a1.41,1.41,0,0,1,1.38.76c.21.54-.06.84-.77.84A1.53,1.53,0,0,1,814.9,44ZM792,43a1.51,1.51,0,0,0-1.35-.51c-1.4.15-4.73-.69-5.1-1.29s.19-.68,4.71-.53c3.49.11,4.54.68,4,2.16A1.27,1.27,0,0,1,792,43Zm7.55-.19c-.57-1.49-.19-1.56,3.18-.57s3.82,1.57.55.83c-1.34-.3-2.35-.26-2.74.13s-.73.31-1-.39Zm-155.48,0c0-.14.26-.42.58-.62s.58-.08.58.26a.6.6,0,0,1-.58.62C644.34,43,644.07,42.87,644.07,42.73Zm151.45-.91c-.2-.32-.08-.58.26-.58a.6.6,0,0,1,.62.58c0,.32-.12.58-.26.58s-.42-.26-.62-.58Zm28.3-.61c0-.38-.39-.53-.88-.35s-.88,0-.88-.56c0-1,2.85-1,3.69.06.31.38.59.33.78-.15s.54-.58.83-.4c.77.48.65,1.23-.2,1.24a9.13,9.13,0,0,0-2,.43c-.86.28-1.31.18-1.31-.26ZM118,40.64c-.2-.32.06-.75.57-.95,1.12-.43,1.74,0,1.2.91a1,1,0,0,1-1.78,0Zm699,.11c-1.76-.25-1.35-1.38.7-1.93,1.23-.33,1.54-.25,1.31.35s.13.73,1.12.63,1.42.14,1.42.62c0,.74-1.12.82-4.56.34ZM238.77,34.82c-.2-.33,0-.76.54-1a1.67,1.67,0,0,0,.91-1.49c0-.63.27-1,.59-.77a.72.72,0,0,1,.21,1c-.21.34.19,1.06.9,1.59,1.28,1,1.27,1-.75,1.1C240.05,35.36,239,35.15,238.77,34.82ZM991,34c-1-.74-1-.81.48-1.18a4.55,4.55,0,0,1,2.85.3c1.25.67,1.26.7.13,1.14C992.82,34.94,992.24,34.9,991,34Zm-759.32-1.6A8.54,8.54,0,0,0,229,30.75l-2.29-1,2.22-.37a32.64,32.64,0,0,1,4.31-.37A17,17,0,0,0,239,27.17c2.45-1.22,3.84-1.63,4.32-1.25,1.55,1.22,10.6,1.7,17.93.94,4.67-.48,11.68-.58,12.34-.16s-2,.93-8.55,1.43c-6.27.48-7,.7-6,1.85.66.8.42.86-2.16.52a14.46,14.46,0,0,0-4.9.21c-1.27.38-2.24.39-2.67,0s-2.62-.57-5-.58-6-.07-8-.12c-4-.11-4.78.23-3.71,1.51.44.53.48,1,.12,1.19a.73.73,0,0,1-1-.3Zm653.19-1.78c-.26-1-.66-1.18-2.14-1-1,.15-1.92.1-2-.11s-1.73-.21-3.55,0c-2.77.3-18.64.28-27.38,0-1.28,0-3.52-.08-5-.07-5.16,0-6.39-.05-6.14-.46a3.82,3.82,0,0,1,2.12-.47A3.71,3.71,0,0,0,843,28c.42-.62,5.31-.62,4.93,0s1.88.2,2.81-.54c1.2-1,3.8-1.28,17.61-2.23,7-.48,15-1.3,17.8-1.82s5.58-1,6.23-1.1a107.55,107.55,0,0,0,19.5-4.18,1.17,1.17,0,0,1,1.27.46c.69,1.12-1.85,3.39-3.81,3.4a20.42,20.42,0,0,0-5.84,2,28.07,28.07,0,0,1-7,2.35A40.89,40.89,0,0,0,889,27.63c-.76.43,1,1.81,2,1.61a1.39,1.39,0,0,1,1.33.33c.19.31.89.31,1.67,0,1.38-.52,3.3.12,2.26.76-.68.42-4,1-8.1,1.29-2.67.22-3,.11-3.32-1Zm1.68.13c-.18-.29,0-.67.4-.83s.33-.31-.29-.34a.91.91,0,0,0-1,.83c0,.48.28.88.62.88S886.77,31.07,886.59,30.78Zm13.16-1.27c-.77-.31-1.24-.72-1-.92.64-.64,3.31-.7,3.31-.08,0,.38.31.35.82-.08s.94-.49,1.21-.06a.74.74,0,0,0,1,.23c.39-.24.46-.12.19.32a1.07,1.07,0,0,1-1.24.41,1,1,0,0,0-1.14.25c-.42.68-1.29.66-3.13-.08ZM472.9,28.06a.87.87,0,0,0,.4-1.09c-.18-.48.31-.88,1.35-1.08a5.68,5.68,0,0,1,1.78-.18c.42.41-1.51,2-2.77,2.32-.8.19-1.15.2-.76,0ZM823,27.86c-.18-.29.2-.39.84-.22,1.36.36,1.53.75.33.75A1.5,1.5,0,0,1,823,27.86Zm5.78-7.56c-.77-.77-.1-1.68,1.22-1.68,1.09,0,1.4.24,1.15.88s-.15.73.4.29c.9-.72,3.23-1.19,9.79-2,5.87-.71,4.5-.64,13.13-.6l8,0a1.77,1.77,0,0,0,1.35-.56c.43-.69,6.12-.7,7.2,0a3.82,3.82,0,0,0,2.63,0,30.68,30.68,0,0,1,8.24-1.14c1.6-.06,5.94-.49,9.63-1,8.48-1.09,10.52-1.23,10.17-.67a11.31,11.31,0,0,1-3.33,1.33c-3,.88-5.15,1.21-11.81,1.86-1.93.19-4.55.57-5.84.84a49.92,49.92,0,0,1-7.33.53,57,57,0,0,0-7.69.54,7.57,7.57,0,0,1-3.35.09c-.36-.22-1.84,0-3.29.45-1.81.6-3,.69-3.91.31a14.57,14.57,0,0,0-4.78-.31c-1.93.13-6.39.34-9.92.47s-7.54.31-8.92.41a7.93,7.93,0,0,1-2.77-.09ZM366.28,3.88c0-.32.12-.58.26-.58s.42.26.62.58.08.58-.26.58A.6.6,0,0,1,366.28,3.88Z" transform="translate(0 -2.9)"/><path class="cls-1" d="M158,122.56h11.7v15.71q6.11-8.69,12.55-12.7a35.59,35.59,0,0,1,18.65-5.35,31,31,0,0,1,12.55,2.59,27,27,0,0,1,9.7,6.89Q227,134,229.72,142q5.83-10.69,14.59-16.25a34.52,34.52,0,0,1,18.84-5.56A29.48,29.48,0,0,1,279.77,125a28.39,28.39,0,0,1,10.71,13.29q3.5,8.52,3.5,25.57v49.63H282V163.84q0-14.62-2.08-20.09a18.1,18.1,0,0,0-7.12-8.81,21.27,21.27,0,0,0-12-3.34,26.17,26.17,0,0,0-15.53,5A28.84,28.84,0,0,0,235,150q-3.25,8.36-3.25,27.91v35.59H220V166.93q0-16.46-2-22.35a18.73,18.73,0,0,0-7.14-9.44,20.66,20.66,0,0,0-12.12-3.55,26.14,26.14,0,0,0-15.16,4.89,28.94,28.94,0,0,0-10.44,13.16q-3.38,8.27-3.38,25.32v38.52H158Z" transform="translate(0 -2.9)"/><path class="cls-1" d="M322.69,85.13a9.65,9.65,0,0,1,0,19.3,9.68,9.68,0,0,1-9.57-9.61A9.36,9.36,0,0,1,315.95,88,9.18,9.18,0,0,1,322.69,85.13Zm-5.81,37.43h11.7v90.91h-11.7Z" transform="translate(0 -2.9)"/><path class="cls-1" d="M441.12,141.45l-9.27,5.77q-12-16-32.8-16-16.61,0-27.58,10.68a34.87,34.87,0,0,0-11,26,36.85,36.85,0,0,0,5,18.7,35.39,35.39,0,0,0,13.85,13.6A40.28,40.28,0,0,0,399.13,205q20,0,32.71-16l9.27,6.1a43.79,43.79,0,0,1-17.5,15.23,55.91,55.91,0,0,1-25,5.41q-21.56,0-35.76-13.7a44.57,44.57,0,0,1-14.2-33.34,47.62,47.62,0,0,1,6.64-24.52,46.8,46.8,0,0,1,18.26-17.67,53.27,53.27,0,0,1,26-6.35A55.49,55.49,0,0,1,416.93,123a48.45,48.45,0,0,1,14.25,7.19A39.12,39.12,0,0,1,441.12,141.45Z" transform="translate(0 -2.9)"/><path class="cls-1" d="M463.6,87.47h11.7v51.39a49.73,49.73,0,0,1,15.63-14,38,38,0,0,1,18.46-4.64,32.24,32.24,0,0,1,18.09,5.18,30.9,30.9,0,0,1,11.65,13.91q3.76,8.73,3.76,27.36v46.79h-11.7V170.1q0-15.71-1.25-21-2.17-9-7.9-13.58T507,131a28.84,28.84,0,0,0-19,7A32.88,32.88,0,0,0,477,155.4q-1.67,6.69-1.67,24.73v33.34H463.6Z" transform="translate(0 -2.9)"/><path class="cls-1" d="M644.49,183.31l9.86,5.18a53.73,53.73,0,0,1-11.21,15.37,44.51,44.51,0,0,1-14.3,8.9,49.91,49.91,0,0,1-18,3q-22.25,0-34.79-14.58t-12.54-33a48.6,48.6,0,0,1,10.62-30.83q13.46-17.21,36-17.21,23.25,0,37.13,17.63,9.87,12.45,10,31.08h-81.8q.33,15.84,10.12,26A32.28,32.28,0,0,0,609.86,205a38.87,38.87,0,0,0,13.51-2.41,35.52,35.52,0,0,0,11.17-6.41Q639.13,192.21,644.49,183.31Zm0-24.48q-2.34-9.36-6.82-15a32.3,32.3,0,0,0-11.84-9,36.27,36.27,0,0,0-15.48-3.43,33.33,33.33,0,0,0-23,8.61q-7,6.27-10.62,18.8Z" transform="translate(0 -2.9)"/><path class="cls-1" d="M769.73,122.56v90.91H758.2V197.84a50.13,50.13,0,0,1-16.5,13.45,46.1,46.1,0,0,1-53-9.48q-13.66-14-13.66-34a46.07,46.07,0,0,1,13.79-33.59,45,45,0,0,1,33.17-14A42.9,42.9,0,0,1,742.29,125a46.12,46.12,0,0,1,15.92,14.29V122.56ZM723,131.5a35.27,35.27,0,0,0-31.17,18.28,36.83,36.83,0,0,0,0,36.72,35.85,35.85,0,0,0,13.23,13.65A34.56,34.56,0,0,0,722.9,205a36.53,36.53,0,0,0,18.19-4.84,33.87,33.87,0,0,0,13.23-13.1A37.41,37.41,0,0,0,759,168.47q0-15.77-10.39-26.37A34.42,34.42,0,0,0,723,131.5Z" transform="translate(0 -2.9)"/><path class="cls-1" d="M794.3,87.47H806v126H794.3Z" transform="translate(0 -2.9)"/></svg>