<svg id="Layer_1" data-name="Layer 1" xmlns="http://www.w3.org/2000/svg" viewBox="0 0 359.12 292.17"><defs><style>.cls-1{fill:#fff;}</style></defs><title>twitter</title><path class="cls-1" d="M66.44,285.08c40.31,3.94,76.48-5.95,108.54-30.49-19-.83-35.47-7.6-49.27-20.65a72.23,72.23,0,0,1-19.18-30.7A73.06,73.06,0,0,0,139.18,202c-17.05-4-31.28-12.53-42.28-26.2s-16.29-29.36-16.35-47.12a73.56,73.56,0,0,0,33.27,9.19c-18.4-13.09-29.33-30.47-32.11-52.69-2.35-18.78,3.17-35.41,9.45-45.58,39.84,47,90.33,72.81,152,77-.41-2.39-.82-4.46-1.1-6.55a73.78,73.78,0,0,1,40.48-76.6A71.84,71.84,0,0,1,317.22,26a72.9,72.9,0,0,1,46.2,17.95c1.73,1.48,3.29,3.15,5,4.68a1.69,1.69,0,0,0,1.27.39,145.87,145.87,0,0,0,44.59-16.8l1.52-.85a73,73,0,0,1-12.44,23.25A77.86,77.86,0,0,1,383.8,72a145.5,145.5,0,0,0,41.56-11.31l.2.25c-2.27,3.06-4.46,6.17-6.81,9.16a145,145,0,0,1-29.13,28,1.45,1.45,0,0,0-.71,1.42,194.64,194.64,0,0,1-.92,29.62A213.27,213.27,0,0,1,376.52,179a217.66,217.66,0,0,1-31.16,58A199.17,199.17,0,0,1,228.31,312.8a216.66,216.66,0,0,1-30.41,4.56,223.33,223.33,0,0,1-37.5-.12,208.59,208.59,0,0,1-93.3-31.65C66.91,285.47,66.75,285.32,66.44,285.08Z" transform="translate(-66.44 -25.91)"/></svg>