<svg id="Layer_1" data-name="Layer 1" xmlns="http://www.w3.org/2000/svg" viewBox="0 0 439.9 307.94"><defs><style>.cls-1{fill:#fff;}</style></defs><title>youtube</title><path class="cls-1" d="M252.83,326c-21.53-.33-43.07-.56-64.6-1-14.79-.31-29.58-.72-44.35-1.48q-22.71-1.18-45.38-3.2a141.85,141.85,0,0,1-23.16-3.52c-21.37-5.56-35-19.4-40.75-40.7-2.77-10.24-3.95-20.8-5-31.35A664.49,664.49,0,0,1,26.1,169.3c.22-17.77,1-35.55,2-53.3A323.58,323.58,0,0,1,33.5,72C36.89,54.72,45.93,41.44,61,32.28c6.81-4.13,14.32-6.16,22.12-7.31,16.15-2.38,32.42-3.43,48.71-4.31Q181.79,18,231.8,18c30.56,0,61.12.56,91.68,1.22,15.71.34,31.4,1.28,47.09,2.22a392.21,392.21,0,0,1,39.55,4.14c13.65,2.22,25.47,7.78,34.78,18.24,7.06,7.94,11,17.31,13.22,27.59A293,293,0,0,1,463,105.62a721.35,721.35,0,0,1,2.81,77.89c-.31,18.43-1.17,36.85-2.92,55.21-1.28,13.42-2.6,26.87-6.43,39.84-6.31,21.36-20.67,34.49-42.38,39a238.26,238.26,0,0,1-28.92,3.67c-40.84,3.35-81.78,4-122.73,4.4-3.21,0-6.42,0-9.62,0Zm-50.74-88.18L316.64,172,202.09,105.84Z" transform="translate(-26.05 -18.03)"/></svg>